<?xml version="1.0" encoding="UTF-8"?>
<svg version="1.1" viewBox="0 0 1300 275" width="1380" height="1280" xmlns="http://www.w3.org/2000/svg">
<path transform="translate(0)" d="m0 0h1601v901h-1601z" fill="#F9FCDF"/>
<path transform="translate(1574)" d="m0 0h27v901h-862l3-2 24-8 20-9 15-8 15-10 13-10 13-12 13-13 11-14 10-14 9-15 12-23 10-23 8-25 5-23 2-14 1-13v-33l-3-35-5-48-1-16v-32l2-22 5-28 8-26 10-24 10-20 10-17 14-21 9-12 8-10 12-14 19-19 22-18 24-16 23-12 22-8 25-6 73-13 34-8 39-12 30-11 38-16 29-13 23-11 22-12 20-12 18-12 18-13 16-13 14-12 13-12 20-20 9-11 11-13z" fill="#FDEACC"/>
<path transform="translate(1266,386)" d="m0 0h222l1 1v81l-1 264h-342l-2-6-8-43v-9l16-49 8-25 1-5v-11l-3-9-5-6-10-5-9-1 8-16 6-14 6-13 8-18v-5l-2-2-45-1-8-26-7-21-5-9-5-5-11-3-21-3-3-3 1-5 7-6 6-11 9-15z" fill="#FDFDFD"/>
<path transform="translate(1044,346)" d="m0 0h12l7 3 423 1 6 4 3 5 1 318v62l-53 1h-287l-1 4h-36l-18-1-5-1v-12l1-3 3-1 5 3 7 1 10-2 10 1 6 2-7-37-6 20-1 5h-25l1-23 4-67 3-20 1-4-27 6-32 5-16 1 8 62 4 32v3l-11 2-8 1h-9l-7-24-5-18v58l2 11h-7l-5-24-12-65 5 1 3 1 5 26 1-23h3l-1-7-10-42-4-22v-10l3-9 8-7h2l1-4h47l1-5 8-20 15-36 3-4h87l3 3-1 7-9 20-16 36-2 2 11 2 9 6 5 7 2 7v11l-5 17-20 62v9l9 48 342 1v-345h-222l-188 1-8 14-1-2 2-12v-15l-3-5h-8l-10 5-8 9-2 1h-9l-2 2v6l4 3 3 13v4l-4-2-5-7-3-10-1-21 2-11 4-5 9-6z" fill="#3C8F7C"/>
<path transform="translate(1044,346)" d="m0 0h12l7 3 423 1 6 4 3 5 1 318v62l-53 1h-287l-10-6v-3l342 1v-345h-222l-188 1-8 14-1-2 2-12v-15l-3-5h-8l-10 5-8 9-2 1h-9l-2 2v6l4 3 3 13v4l-4-2-5-7-3-10-1-21 2-11 4-5 9-6z" fill="#3CB3C4"/>
<path transform="translate(1060,367)" d="m0 0h8l4 6v15l-2 12-4 10-8 9-2 1v6l23 3 11 3 5 5 5 8 7 19 8 28v2l-42 1-6 12-16 40-5 12-47 1h-3l-4-8-4-16-2-16v-12l-3-1v-37l3-19 4-10 4-6 5-3 35-6 1-19-3-13-4-3v-6l3-3h9l5-4 5-6z" fill="#F37357"/>
<path transform="translate(998,402)" d="m0 0h3l-2 4-7 8-12 18-8 16-6 17-4 18-2 20v19l3 26 6 24 8 19 7 11 5 6 12 48v5l-4-1v28h-1l-5-27v-4l-5-1-18-8-15-9h-2l-19 103-1 2h-8l2-14 19-99-7-11-8-17-6-20-4-23-1-12v-20l2-20 6-25 9-21 10-16 10-13 9-10 14-11 16-8z" fill="#F6CC7F"/>
<path transform="translate(1069,402)" d="m0 0 6 2 175 1 5 5v6l-4 4-2 1-151 1 5 5 103 1 4 5-1 7-4 3h-90l6 11 9 18 42 1 4 5-1 7-4 3h-36l2 6h-22l-8-26-7-21-5-9-5-5-11-3-21-3-3-3 1-5 7-6z" fill="#FADFB1"/>
<path transform="translate(1155,517)" d="m0 0h68l5 3 2 3-1 6-5 4h-72l3 6 43 1 4 4 1 5-3 5-2 1h-36l3 6 125 1 5 4 1 6-4 5-2 1h-117l2 6 68 1 4 5-1 7-3 3-67 1-3 12-5 10-4 6 7 2 3 3v7l-4 4h-24l3-11 11-34 1-5v-11l-3-9-5-6-10-5-9-1 8-16 6-14 6-13z" fill="#F8DFB2"/>
<path transform="translate(1073,494)" d="m0 0h87l3 3-1 7-9 20-16 36-5 4h-133l-1-4 1-1h47l1-5 8-20 15-36z" fill="#000101"/>
<path transform="translate(996,563)" d="m0 0 15 1 9 8 7 14 4 17 8 60 6 48v3l-11 2-8 1h-9l-7-24-5-18v58l2 11h-7l-5-24-12-65 5 1 3 1 5 26 1-23h3l-1-7-10-42-4-22v-10l3-9z" fill="#3C8F7C"/>
<path transform="translate(1007,350)" d="m0 0h30l-4 4-6 4-2 5-1 8 1 21 4 12 6 7v15l-6 2-30 5-5 3-5 9-4 16-1 9v37l2 1 3 28 4 16 4 8 1 3-6 4-4 5-2 7v10l3 19-5-5-7-10-8-18-6-22-3-19-1-12v-19l2-20 6-25 9-21 10-16 10-13 5-6-4 1v-44l4-6z" fill="#F9DFB1"/>
<path transform="translate(229,220)" d="m0 0h16l12 3 10 5 9 8 7 11 2 9h-27l-4-5v-2l-4-2-7-3h-12l-10 5-4 5-3 6-1 5v14l4 10 5 6 9 4h12l10-5 5-7h27l-2 9-7 11-9 8-12 6-10 2h-16l-12-3-11-6-10-10-6-11-3-10-1-13 2-14 4-10 6-9 8-8 14-7z" fill="#022C2A"/>
<path transform="translate(1104,605)" d="m0 0h4l-1 9-2 15-2 31-1 8h-18l-1 11-9 48-3 17h-9l14-74 1-2-7 1h-26l-5-1-6-42v-9l37-5 30-6z" fill="#F7CC80"/>
<path transform="translate(1011,564)" d="m0 0h118l-4 4h-2l-8 16-6 20-13 4-32 6-24 3h-8l-4-24-5-14-6-9-6-5z" fill="#256653"/>
<path transform="translate(263,597)" d="m0 0h287l4 5-1 6-3 3h-287l-4-4v-6z" fill="#4AA2AC"/>
<path transform="translate(263,524)" d="m0 0h266l4 4v6l-4 4h-266l-4-4v-6z" fill="#4AA2AC"/>
<path transform="translate(1161,495)" d="m0 0h207l5 5-1 7-4 3h-209l3-8v-5z" fill="#D0D0D0"/>
<path transform="translate(263,633)" d="m0 0h215l4 4v7l-3 3h-217l-3-3v-7z" fill="#49A3AD"/>
<path transform="translate(414,235)" d="m0 0h24v26h25v22h-25v26h-24v-26h-25v-22h25z" fill="#022C2A"/>
<path transform="translate(324,235)" d="m0 0h24v26h25v22h-25v26h-24v-26h-25v-22h25z" fill="#022C2A"/>
<path transform="translate(1077,405)" d="m0 0h173l5 5v6l-4 4-2 1h-152l-12-10-8-5z" fill="#D1D1D1"/>
<path transform="translate(999,432)" d="m0 0 6 1 5 8 4 13 2 14 1 17v18l-1 5-11 1h-18l-4-2v-37l3-19 4-10 4-6z" fill="#DD513A"/>
<path transform="translate(1060,367)" d="m0 0h8l4 6v15l-2 12-4 10-8 9-2 1v6l2 1h-2l1 4v15l-2 3-5-1-9-10-7-11 1-20-3-13-4-3v-6l3-3h9l5-4 5-6z" fill="#F6A390"/>
<path transform="translate(261,561)" d="m0 0h144l1 1v11l-3 2h-140l-4-3v-9z" fill="#49A3AD"/>
<path transform="translate(1104,605)" d="m0 0h4l-1 9-2 15-1 15-22-1-27-4-21-6-1-7v-9l37-5 30-6z" fill="#F9DFB2"/>
<path transform="translate(1165,562)" d="m0 0h125l5 4 1 6-4 5-2 1h-118z" fill="#D1D1D1"/>
<path transform="translate(1084,668)" d="m0 0h18l-1 28-2 23h25l1-9 5-17 2 1 6 32v5l-10-2-10 1-8 1-6-2-5-2h-2l-1 5h-23l1-10z" fill="#FCFCFC"/>
<path transform="translate(986,508)" d="m0 0 25 1 1 12v18h41l-1 5-6 15-47 1h-3l-4-8-4-16-2-16z" fill="#F6A390"/>
<path transform="translate(1039,668)" d="m0 0h38l-5 28-7 36h-17l-3-9-2-4v-5h2l-2-11-4-30z" fill="#FDFDFC"/>
<path transform="translate(1044,346)" d="m0 0h12l11 5 10 5 5 8v11l-4 13-8 14-1-2 2-12v-15l-3-5h-8l-10 5-8 9-2 1h-9l-2 2v6l4 3 3 13v4l-4-2-5-7-3-10-1-21 2-11 4-5 9-6z" fill="#103238"/>
<path transform="translate(1331,540)" d="m0 0h104l5 5-1 7-4 3h-104l-4-3-1-6 3-5z" fill="#D1D1D1"/>
<path transform="translate(1212,540)" d="m0 0h105l4 4v7l-4 4h-105l-4-4v-7z" fill="#D1D1D1"/>
<path transform="translate(1104,428)" d="m0 0h102l4 5-1 7-4 3h-91l-9-12z" fill="#D1D1D1"/>
<path transform="translate(1143,652)" d="m0 0h78l5 5v6l-4 4-2 1h-81l2-9z" fill="#D1D1D1"/>
<path transform="translate(1307,562)" d="m0 0h71l5 3 1 2v6l-4 4-2 1h-71l-5-4v-8z" fill="#D1D1D1"/>
<path transform="translate(1155,517)" d="m0 0h68l5 3 2 3-1 6-5 4h-73l-1-4z" fill="#D0D0D0"/>
<path transform="translate(1237,652)" d="m0 0h66l5 5v6l-4 4-2 1h-64l-5-3-1-1v-8z" fill="#D1D1D1"/>
<path transform="translate(1007,350)" d="m0 0h30l-4 4-6 4-2 5-1 8v16h-19v14l-8 2v-44l4-6z" fill="#3CB3C4"/>
<path transform="translate(1318,652)" d="m0 0h66l5 4v7l-4 4-34 1h-31l-6-3-1-2v-6z" fill="#D1D1D1"/>
<path transform="translate(1134,680)" d="m0 0h2l5 25 5 28 10 6-1 5h-36l-18-1-5-1v-12l1-3 3-1 5 3 7 1 10-2 10 1 6 2-6-31-1-10z" fill="#11353A"/>
<path transform="translate(1175,585)" d="m0 0h68l4 5-1 7-3 3h-67z" fill="#D1D1D1"/>
<path transform="translate(1088,432)" d="m0 0 5 2 6 9 7 18 9 31v2h-26v-49z" fill="#DD523A"/>
<path transform="translate(1257,585)" d="m0 0h54l5 5-1 7-4 3h-54l-4-5 1-7z" fill="#D1D1D1"/>
<path transform="translate(944,631)" d="m0 0h2l5 5-2 14-17 92-1 2h-8l2-14z" fill="#12383C"/>
<path transform="translate(1366,472)" d="m0 0h41l5 3 2 6-3 5-3 2h-43l-5-5v-6l4-4z" fill="#D1D1D1"/>
<path transform="translate(1308,472)" d="m0 0h40l6 3 1 2v6l-5 5h-43l-5-4-1-4 2-5z" fill="#D1D1D1"/>
<path transform="translate(1e3 673)" d="m0 0 2 2 11 40v2l26-3 2 10-8 3h-9l-8-4-2 4-3 5h-10l-1-2z" fill="#FCFCFB"/>
<path transform="translate(1283,472)" d="m0 0 10 1 3 3 1 5-3 5-3 2h-43l-5-5v-6l4-4z" fill="#D1D1D1"/>
<path transform="translate(1343,428)" d="m0 0h46l4 5-1 6-3 3-2 1h-43l-5-5 1-7z" fill="#D1D1D1"/>
<path transform="translate(1187,473)" d="m0 0h46l3 3 1 6-2 4-4 2h-43l-5-5 1-7z" fill="#D1D1D1"/>
<path transform="translate(1282,428)" d="m0 0h46l3 3 1 5-2 5-3 2h-44l-5-5 1-7z" fill="#D1D1D1"/>
<path transform="translate(1222,428)" d="m0 0h45l4 3 1 5-3 6-2 1h-44l-5-5 1-7z" fill="#D1D1D1"/>
<path transform="translate(1244,630)" d="m0 0h44l4 3 1 6-3 5-2 1h-44l-4-4v-7z" fill="#D1D1D1"/>
<path transform="translate(1212,675)" d="m0 0h45l4 5-1 7-4 3h-43l-5-4v-7z" fill="#D1D1D1"/>
<path transform="translate(1185,630)" d="m0 0h44l4 4v7l-4 4h-44l-5-5 1-7z" fill="#D1D1D1"/>
<path transform="translate(1154,675)" d="m0 0h44l4 3 1 6-3 5-2 1h-44l-4-4v-7z" fill="#D1D1D1"/>
<path transform="translate(1039,668)" d="m0 0h38l-4 23-31-1-3-17z" fill="#D1D1D1"/>
<path transform="translate(1155,540)" d="m0 0h43l4 4 1 5-3 5-2 1h-37l-6-13z" fill="#D1D1D1"/>
<path transform="translate(1130,473)" d="m0 0h42l4 5-1 7-4 3h-36l-4-10z" fill="#D1D1D1"/>
<path transform="translate(1078,667)" d="m0 0h7l-9 50-4 20-1 7h-9l14-74z" fill="#12373B"/>
<path transform="translate(983,655)" d="m0 0 5 1 3 1 5 26 4 23 7 36v2h-7l-5-24z" fill="#12373A"/>
<path transform="translate(589,636)" d="m0 0h8l5 4 1 2v18l4 2v7l-4 2v18l-3 5-3 2h-8v-7l5-1-1-17 3-4-3-6v-17l-4-1z" fill="#49A3AD"/>
<path transform="translate(219,458)" d="m0 0h7v7l-5 1v19l-3 3 3 3v19l5 1v7h-8l-4-2-2-3v-19l-4-2v-7l4-2v-19l4-5z" fill="#4AA3AD"/>
<path transform="translate(1130,693)" d="m0 0 2 1 6 32v5l-10-2-10 1-8 1-6-2-5-3 1-7h24l1-9z" fill="#FBFBFA"/>
<path transform="translate(1020,723)" d="m0 0 5 2 3 1h9l9-3 1 2 1 14-4 3-7 2h-17l-5-3-1-2 1-9z" fill="#103339"/>
<path transform="translate(1036,409)" d="m0 0 4 5 7 7 7 4 4 2h-2l1 4v15l-2 3-5-1-9-10-7-11 1-16z" fill="#F7A491"/>
<path transform="translate(1084,668)" d="m0 0h18l-1 23-20-1 1-11z" fill="#D1D1D1"/>
<path transform="translate(997,660)" d="m0 0 5 1 3 9-1 57h-1l-6-32-1-7z" fill="#3CB2C2"/>
<path transform="translate(1162,630)" d="m0 0h8l4 4v7l-4 4h-23l5-5 8-7z" fill="#D1D1D1"/>
<path transform="translate(1e3 387)" d="m0 0h19l1 11-20 3z" fill="#FDFDFC"/>
<path transform="translate(1039,668)" d="m0 0h38l-1 7h-36z" fill="#FDFDFC"/>
<path transform="translate(1042,714)" d="m0 0h1l2 10-8 3h-9l-6-3 1-7 11-2z" fill="#F6A491"/>
<path transform="translate(1100,719)" d="m0 0h19l3 6 2 3-12 3-7-1-6-4z" fill="#F7A491"/>
<path transform="translate(1474,360)" d="m0 0h6l5 4 1 5-3 6-7 2-5-3-2-2v-7z" fill="#DD513A"/>
<path transform="translate(1072,730)" d="m0 0 1 2h23v10h5v1h-6v-3h-24z" fill="#3CB0BE"/>
<path transform="translate(1047,731)" d="m0 0 18 1-1 7-1 1h-16z" fill="#3CB2C1"/>
<path transform="translate(1084,668)" d="m0 0h18v6l-1 1h-17z" fill="#FDFDFD"/>
<path transform="translate(991,657)" d="m0 0 7 2-1 29h-1l-5-27z" fill="#FBE8C9"/>
<path transform="translate(1136,674)" d="m0 0 6 3 2 4-1 6-5 3-2-7z" fill="#D1D1D1"/>
<path transform="translate(1047,403)" d="m0 0 11 1 4 1-1 4-3 2-6-1-5-4z" fill="#FDF8F0"/>
<path transform="translate(1e3 730)" d="m0 0 1 2h10v8h-9z" fill="#3CB2C2"/>
<path transform="translate(1107,524)" d="m0 0 5 1 2 2-1 5-2 2h-5l-1-1v-7z" fill="#F4F6F6"/>
<path transform="translate(1036,407)" d="m0 0 5 5 6 5 8 3 1 6-6-2-10-9-4-6z" fill="#F47458"/>
<path transform="translate(1156,633)" d="m0 0h3l-2 4-10 8-1-2 3-7z" fill="#F7CF87"/>
<path transform="translate(1044,554)" d="m0 0h3l-1 5h-18l4-2z" fill="#F37357"/>
<path transform="translate(1097,664)" d="m0 0h5v4h-17l2-2z" fill="#D1D1D1"/>
</svg>
