<svg width="36" height="33" viewBox="0 0 36 33" fill="none" xmlns="http://www.w3.org/2000/svg">
<path d="M18 32c-1.65 0-3.23-.21-4.73-.62a31.58 31.58 0 01-7.26-3.33 32.15 32.15 0 01-5.63-4.74c-1.72-1.93-3.22-4.02-4.48-6.17A31.75 31.75 0 010 11.8c0-2.23.31-4.42.93-6.56.65-2.19 1.6-4.28 2.79-6.2a30.87 30.87 0 014.49-5.67 30.9 30.9 0 017.27-4.64C15.09.68 16.67.5 18 .5s2.91.18 4.73.61a31.22 31.22 0 017.26 3.34 31.98 31.98 0 015.63 4.75c1.72 1.93 3.22 4.02 4.48 6.17a31.75 31.75 0 011.63 6.2c.62 2.14.93 4.34.93 6.56 0 2.23-.31 4.42-.93 6.56a31.58 31.58 0 01-4.48 6.18 31.22 31.22 0 01-5.63 4.75c-1.72 1.93-3.8 3.48-6.03 4.64-1.5.41-3.07.62-4.73.62zm0-23.85a4.36 4.36 0 100 8.71 4.36 4.36 0 000-8.71zm0 19.69c2.03 0 3.99-.2 5.87-.6 1.83-.37 3.57-.9 5.21-1.6 1.65-.73 3.22-1.61 4.66-2.62 1.45-1.02 2.78-2.16 4-3.43 1.21-1.27 2.3-2.64 3.27-4.1a30.04 30.04 0 002.15-4.52 29.75 29.75 0 001.26-5.04 29.18 29.18 0 00.34-5.05c0-1.66-.12-3.31-.34-4.94a30.04 30.04 0 00-1.26-5.04 29.75 29.75 0 00-2.15-4.52 30.2 30.2 0 00-3.27-4.1 30.63 30.63 0 00-4-3.43 30.37 30.37 0 00-4.66-2.62 30.4 30.4 0 00-5.21-1.6 30.04 30.04 0 00-5.87-.6c-2.03 0-3.99.2-5.87.6-1.83.37-3.57.9-5.21 1.6-1.65.73-3.22 1.61-4.66 2.62-1.45 1.02-2.78 2.16-4 3.43-1.21 1.27-2.3 2.64-3.27 4.1a30.04 30.04 0 00-2.15 4.52 29.75 29.75 0 00-1.26 5.04 29.18 29.18 0 00-.34 5.05c0 1.66.12 3.31.34 4.94a30.04 30.04 0 001.26 5.04c.72 1.57 1.56 3.07 2.48 4.49.91 1.43 1.92 2.78 2.99 4.07 1.08 1.28 2.22 2.49 3.44 3.61 1.21 1.12 2.49 2.15 3.83 3.06 1.33.91 2.74 1.7 4.19 2.35 1.45.65 2.95 1.18 4.47 1.57 1.53.39 3.1.6 4.7.6z" fill="#61DAFB"/>
</svg>
