<?xml version="1.0" encoding="UTF-8"?>
<svg version="1.1" viewBox="0 0 1300 275" width="1380" height="1280" xmlns="http://www.w3.org/2000/svg">
<path transform="translate(0)" d="m0 0h1600v728h-1600z" fill="#F3B000"/>
<path transform="translate(126,494)" d="m0 0 4 2 1 5h2v2l4 1 12 14 8 11 10 12 7 9 11 14 9 10 8 10 11 14 4 6-1 5-8 10-7 8-9 11h-2l-2 4-12 14-9 9-9 11-14 15-9 11-9 9-7 8-3 4 13-1 46-7 4-1-2-5-4-5-3-3-1-4 14-15 12-12h2l1-3 5-4 4-5 5-4 4-5 8-7 7-8 8-7 4-2 1-3 5-4 1-2h2l1-3 5-4 5-5 5-6 11-9 7-6 5 2 10 8 10 9 9 7 3 1 2 4 5 2 2 4 8 4v3l7 6 4 1 1 3 6 3 2 4 5 2 3 5 8 6 3 1v2l6 3 1 3 2 1v2l5 1 7 6 3 3 7 1 83-12 100-15 50-7 357-53 595-88h5v223h-1600v-162l11-7 18-14 19-14 10-7 19-14 12-9 9-6 10 2 5 3 4-1z" fill="#FBFBFB"/>
<path transform="translate(408)" d="m0 0h170l5 6 8 7 15 14 8 7 6 7 8 7 1 4 3 1 1 2v9l-5 9-7 11-13 14-1 2h-2l-1 3-5 5-15 16-10 11-7 8-5 5-9 10-4 5h-2l-2 4-7 7-6 7-5 4-9 11-7 7-5 6-13 13-2 3h-2l-2 4-9 9-7 8-5 6-7 6h-2l-1 3-9 4h-5l-2 4-5-1-4-3v-2l-4-2-10-9-5-5-16-15-3-4-5-3-12-12-7-6v-2l-4-2-7-6-13-13-4-2-4-5-11-9v-2l-3-1v-2h-2l-1-2-4-2-5-5-10-9-7-8-6-5-1-5 5-5 8-7 5-5 8-9 5-5 6-7 8-10 7-6 5-5 8-9 17-17 8-9 5-5 5-6h2l2-4 5-4 9-11 3-1z" fill="#FC7C4A"/>
<path transform="translate(0)" d="m0 0h191l14 25 14 24 17 28 13 24 11 22 1 3h2l1 4-12 5-9 5-15 8-19 12-19 11-23 13-35 20-24 13-19 10-7 3-5 1v3 2h-4l-3-10-3-7-5-10-11-20v-4h-2l-11-22-8-14-8-16-7-12-7-14-7-12-1-1z" fill="#75B6E8"/>
<path transform="translate(126,494)" d="m0 0 4 2 1 5h2v2l4 1 12 14 8 11 10 12 7 9 11 14 9 10 8 10 11 14 4 6-1 5-8 10-7 8-9 11h-2l-2 4-12 14-9 9-9 11-14 15-9 11-9 9-7 8-5 6-16 2-2 1h-96v-162l11-7 18-14 19-14 10-7 19-14 12-9 9-6 10 2 5 3 4-1z" fill="#7ECCF0"/>
<path transform="translate(490,473)" d="m0 0 11 5 5 1v2l5 2 8 7 12 11 13 12 2 1v2l4 2 7 6 10 10v2l4 2 8 7 31 29 8 7 10 9 9 7 7 8 3 3 1 3v8l-11 15-5 5-9 10-9 2-161 24-4-2-13-13v-2l-4-2-20-20-5-4-7-8-7-6-7-8-14-14-2-1 1-5 7-7 8-10 22-22 2-3h2l2-4 11-11 7-8 7-7 5-6h2l2-4 7-7 7-8 12-12 5-6 6 1v-2z" fill="#FA5950"/>
<path transform="translate(34,233)" d="m0 0h4l5 6 8 7 12 13 11 12 13 15 16 16 7 8 7 7 7 8 11 12 9 9 9 11 10 13 8 10 3 5-1 5-5 9-17 12-16 12-17 13-14 10-16 12-19 14-21 16-17 12-10 8-12 9-5-1-4-4v-254l14-10 14-11z" fill="#D950BD"/>
<path transform="translate(191)" d="m0 0h21l8 16 7 12 6 11 9 17 7 12 6 11 9 15 6 11 8 17v7l-4 8-6 4-8 4-18 10-20 12-11 6-12 7-14 7-21 12-22 12-14 8-9 6-20 11-4 3h-12l1 2-3 1-2-3 1 4 4 4v2l4 2 15 20 11 13 2 4h2l7 9 9 11 5 5 6 7 7 8 4 6 2 1v2l4 2 4 6 11 12 8 10 6 8 4 9v8l-4 8h-2l-2 5-5 5-5 3-10 10h-2v2l-6 4-2 2-4 1-1 2-3 1-2 3h-2v3h-4v2l-6 4-6 5-7 5-4 4-10 7-8 6-6 4-8 6-1 2-8 4-5 5-10 7-5 4h-2l-1 3h-2l-1 3-5 3-4 5h-8l-8 1-14-2-9 1v-2h-2l-1-6 5 4 5-1 12-9 17-13 14-10 21-16 11-8 38-28 12-9 13-10 17-12 4-4 4-8-1-5-10-13-11-14-12-14-13-13-7-8-11-12-15-16-11-11-9-11-8-8-7-8-10-11-3-2v-2l-4-2-3-3v-2l-7 3-16 12-9 7-4 3h-2v-164l3 2 7 14 9 16 11 20 5 10 10 19 4 8v2h2l3 7 11 21 5 9 3 14h4v-2l-2-1 1-3 8-2 19-9 22-12 23-13 10-6 11-6 23-13 17-10 26-16 16-8 7-4 5-1v-4h-2l-6-10-6-14-13-23-16-27-14-24-13-23z" fill="#E08708"/>
<path transform="translate(286,583)" d="m0 0 5 2 10 8 10 9 9 7 3 1 2 4 5 2 2 4 8 4v3l7 6 4 1 1 3 6 3 2 4 5 2 3 5 8 6 3 1v2l6 3 1 3 2 1v2l5 1 7 6 3 3 6 2v1l-30 4-54 8-143 21-3-1-2-5-4-5-3-3-1-4 14-15 12-12h2l1-3 5-4 4-5 5-4 4-5 8-7 7-8 8-7 4-2 1-3 5-4 1-2h2l1-3 5-4 5-5 5-6 11-9z" fill="#DDE5B3"/>
<path transform="translate(212)" d="m0 0h196v2l-5 5-7 8-6 5-7 8-5 5-11 12h-2l-2 4-7 7-7 8-8 7-7 8h-2l-2 4-6 7-9 11-5 5-8 7-12 12h-2v7l4 2 5 5-1 2-9-8-5-2-9 10-8 5h-3l-1 4-6 2h-4v2l-10 6-6 2-2 3-8 3-9 5-5 3-8 4-5 3-5 4-10 4-5 4-7 3-1 2-7 3-17 9-3 3-5 2-4 2h-3v2h-2v2l-7 3-6 3h-3v2l-11 6-5 3h-9v-1l9-2 9-6 20-11 10-7 25-13 24-14 21-11 13-8 11-6 18-10 14-8 11-6 4-8v-7l-9-19-8-14-10-17-10-18-12-22-7-12-7-14z" fill="#F3B000"/>
<path transform="translate(214,200)" d="m0 0h20l17 4 6 2h16l8 7 7 13 1 4v12l-3 6-5 3h-9l-5-4v-2l-3-1-7-8-10-7-9-2-8 1-5 5v6l3 5 9 4 7 3 17 7 9 6 9 8 7 11 1 6v13l-3 12-7 10-5 6-14 9-14 5-9 2-20-1-21-4-17-6-8-5-3-5-5-15v-19l4-6h8l5 4 7 12v2h2l3 5 5 5 10 4 16 1 7-3 2-3v-6l-4-4-14-7-17-8-9-6-7-8-6-9-3-7v-23l7-13 9-9 10-6 6-3z" fill="#FBFAF9"/>
<path transform="translate(345,371)" d="m0 0h7l10 4 11 9 3 6v7l-6 6h-8l-13-1-10 5-11 9-3 3h-2l-2 5v9l9 11 6 7 4 2 4-1 4-2 5-7-1-5-6-10 1-6 4-4h8l11 7 14 14 8 14 1 10-5 6-7-2-8-5-10 1v2l-4 4 1 6 10 11 10 10h7l8-6 13-12 5-10 1-3v-13l-2-7 1-9 4-3h9l8 7 6 10 5 16v10l-8 7-10 7-5 5-3 1-2 4h-2v2l-10 8-15 14-7 6h-2v2l-11 9-7 7-6 5-4 2-7-1-4-4 2-9v-6l-6-12-10-13-8-10-7-7-7-8-11-12-13-9-6-1-6 2h-5l-5-5v-8l9-10 8-7 4-2 1-3 7-6h2l1-3 11-9 17-16 5-5h2l2-4 7-8 5-7z" fill="#FBFAF8"/>
<path transform="translate(144,348)" d="m0 0 5 4 22 28 3 5-1 5-5 9-17 12-16 12-17 13-14 10-16 12-19 14-21 16-17 12-10 8-12 9-5-1-4-4v-68l3 1 2-4 4 1v-3l5-2 4-1v-6l5-2 1-4 8-1v-3l1-4h6l2-2h3l2-7h2v-2l4 1-1-4 2-5h-4v-3l7-1 5 1 4 1v9l2 6h2l2-5-4-2 2-2 3 2v-2l3-3h8l1 2-2 1 1 5h9l-2 4-4-1-3 1-2-2v4l-4 1v2h-7l-1 5 4 2 1-3 4-3 4 1v-3h8l2-3 8-3v-2h-2v-2h2v-2h2l-2-7 3-2 2 4 3-1v4l5-1 1-3 6-3 1-2h2l3 3v-4l8-5-1-6 4-1-1-3h2v-2l-3-1 2-3-2-2 6-3v-3l1-2h3l1-7z" fill="#CE32B1"/>
<path transform="translate(228,352)" d="m0 0 13 3 16 9 14 10 10 8 7 8 1 2v9l-4 4-5 1-9-1-6 4-13 18-13 19-16 23-3 7v8l6 7 12 6 7 1 9-3 9-6 1-1h6l5 4 1 2v8l-6 11-4 5-8 6-13 6h-9l-8-7-10-9-19-13-14-10-17-12-12-9-4-4v-8l4-3 15-1 6-4 12-16 26-39 9-14v-7l-5-8v-9l3-3z" fill="#FBFAF9"/>
<path transform="translate(317,210)" d="m0 0h12l6 3v2h2l6 10 9 12 7 7 11 9 7 6 5 5 8 7 13 11 10 5 11 1 5 7-1 7-9 8-8 5-10 4-6 1-7-3-2-3v-6l3-7-2-4-3-2-7 1-18 11-5 4 1 9 10 2 3 4 1 6-3 6-9 7-17 10-10 5-5 1h-9l-6-6v-6l5-8-1-9-1-2-2-21-2-12-5-40v-29l3-9 6-7z" fill="#FBFAF9"/>
<path transform="translate(731,421)" d="m0 0h146v54h-146z" fill="#F8F8F7"/>
<path transform="translate(556)" d="m0 0h22l5 6 8 7 15 14 8 7 6 7 8 7 1 4 3 1 1 2v9l-5 9-7 11-13 14-1 2h-2l-1 3-5 5-15 16-10 11-7 8-5 5-9 10-4 5h-2l-2 4-7 7-6 7-5 4-9 11-7 7-5 6-13 13-2 3h-2l-2 4-9 9-7 8-5 6-7 6h-2l-1 3-9 4h-5l-2 4-5-1-2-1-1-5 4-6 9-9 5-4 7-8 15-16 9-10 7-8 7-7 7-8 11-12 11-11 7-8 30-32 11-12 9-10 12-13 8-8 7-8 10-11-1-3-8-7-11-11-8-7-9-9-8-7-9-9-8-7z" fill="#8E1B1F"/>
<path transform="translate(0,94)" d="m0 0 3 2 7 14 9 16 11 20 5 10 10 19 4 8v2h2l3 7 11 21 4 7v10l-4 1h-10l-2 4-4-1-2 4-4-4-3-1-2-3-4 1-8 7-6 4h-2l-1 3-11 8-4 3h-2z" fill="#F3AF00"/>
<path transform="translate(126,494)" d="m0 0 4 2 1 5h2v2l4 1 12 14 8 11 10 12 7 9 11 14 9 10 8 10 11 14 4 6-1 5-8 10-7 8-9 11h-2l-2 4-12 14-9 9-9 11-14 15-9 11-9 9-7 8-5 6-15 2 2-5 10-11 9-11 9-9 9-11 12-14 7-8 11-13 11-12 9-11 10-11-6-7-13-14-9-12-11-13-8-10-13-15-9-10-7-8-8-8v-2h-2l-9-11-3-3v-2l8 1 5 3 4-1z" fill="#255269"/>
<path transform="translate(0)" d="m0 0h112v11l-5 19-5 9-5 6h-2l1 5-1 1h-43l-13-5-16-8-10-7-1-3-5-2-7-4z" fill="#75B6E8"/>
<path transform="translate(51,239)" d="m0 0 6 1 13 10 11 14 12 14 6 8 5 4 5 7 5 5 11 13 12 13 10 11 7 8 12 14 7 8 8 11 7 10-1 6-11 10-10 8-18 13-26 20-15 12-16 11-19 14-21 16-9 7-14 10-1 2-8-1h-9l-7 1-2-1-1-6 5 4 5-1 12-9 17-13 14-10 21-16 11-8 38-28 12-9 13-10 17-12 4-4 4-8-1-5-10-13-11-14-12-14-13-13-7-8-11-12-15-16-11-11-9-11-8-8-7-8-10-11 1-4z" fill="#8C1721"/>
<path transform="translate(490,473)" d="m0 0 11 5 5 1v2l5 2 8 7 12 11 13 12 2 1v2l4 2 7 6 10 10v2l4 2 8 7 31 29 8 7 10 9 9 7 7 8 3 3 1 3v8l-11 15-5 5-9 10-9 2-16 2 4-6h2l2-4 20-20h2l2-4 4-2v-3l-4-2-12-13-12-11-8-7-12-12-8-7-12-12-24-22-14-12-8-7v-2l-4-2-11-11-8-7-11-10v-2z" fill="#C76E08"/>
<path transform="translate(191)" d="m0 0h10l10 19 7 13 10 18 8 14 3 6 9 13 8 16 7 13 3 8 6 10v7l-14 7-17 10-9 5-16 8h-2v2l-10 6-10 3v2l-9 2-14 9-12 7-5 4-7 3h-3v2l-11 2-4 1 1 3-4 3h-7l-5 3-1 2 3 1v1l-7 2-3 1-5 6-4 2-3 4-7-1-12-3 1-4 8-2 19-9 22-12 23-13 10-6 11-6 23-13 17-10 26-16 16-8 7-4 5-1v-4h-2l-6-10-6-14-13-23-16-27-14-24-13-23z" fill="#255268"/>
<path transform="translate(556)" d="m0 0h22l5 6 8 7 15 14 8 7 6 7 8 7 1 4 3 1 1 2v9l-5 9-7 11-13 14-1 2h-2l-1 3-5 5-15 16-10 11-7 8-5 5-9 10-4 5h-2l-2 4-7 7-6 7-5 4-9 11-7 7-5 6-13 13-2 3h-2l-2 4-9 9-7 8-5 6-7 6h-2l-1 3-9 4-4-1 11-10 8-7 11-12 7-8 8-8 9-11 14-14 7-8 8-8 7-8 9-9 7-8 7-7 7-8 31-33 11-12 5-6 5-5 6-8 1-4-5-5-4 3 2-4 3-4-20-20-8-7-9-9-8-7-9-9-8-7z" fill="#C86F08"/>
<path transform="translate(246)" d="m0 0h103l-6 7-8 7-11 9-14 12-10 9h-2l-2 4-4 4 4-2 5 1-3 6-3 2-11-12-8-10-12-14-11-14-7-7z" fill="#FADAD1"/>
<path transform="translate(201)" d="m0 0h11l8 16 7 12 6 11 9 17 7 12 6 11 9 15 6 11 8 17v7l-4 8-6 4-8 4-18 10-20 12-11 6-12 7-14 7-21 12-22 12-14 8-9 6-20 11-4 3h-7l-11-3v-1l10 1 7 1 4-5h3l2-4h2l1-3 9-3-2-1 1-3 5-3h7l3-3v-2l9-3h6v-2l11-5 5-4 11-6 14-9 9-1v-2l11-5 7-4h2v-2l17-8 7-5 10-5 15-9 9-3-1-7-8-14-4-10-9-16-5-10-9-13-6-12-9-16-8-14-12-24z" fill="#9F530A"/>
<path transform="translate(124,491)" d="m0 0h5l7 5 5 5 7 5 9 14 3 5v2l3 1 2 4 8 8 6 8 9 11 3 4v2l4 2 9 11 10 11 7 13v10l-5 9-7 9-8 10-11 13-5 7-8 7-1 2h-2l-2 4-3 1-2 4-11 12h-2l-2 4-18 20h-2l-2 4-5 5-3 1h-7l3-5 16-17 13-15 13-14 9-11 10-10 9-11 9-10 9-11 8-9 2-3-1-6-11-14-14-17-11-13-7-9-11-14-10-12-8-11-7-8-3-1v-2h-2l-3-6-6-2z" fill="#C87009"/>
<path transform="translate(307,581)" d="m0 0 7 4 11 9 6 3v2h3v2l4 2 8 6 10 9 5 4 3 1 5 5 13 11 12 10v2l4 2 10 8v2l4 2 13 11 2 2-9 2-13 1-6-3-2-4-6-4-3-1v-2l-4-2-1-2-5-3-1-2-5-3-7-6-2-3-5-3-2-3-7-4v-2l-4-2-7-6v-3l-5-1-4-5-3-6 3-5 8 5v-2l-4-2-8-8-2-1v-2l-4-2-10-10-2-1z" fill="#A25609"/>
<path transform="translate(38,233)" d="m0 0 8 6 3-1h8l10 2 6 5 10 13 10 12 4 5v2l3 1 11 14 9 10 7 8 11 12 8 10 8 8 9 11 11 12 2 5h2l4 6 7 10 1 8-2 8-7 6-4 5-18 13-9 6-8 6h-2l-1 3-8 6-5 4-1 2-5 3-8 7h-2v2l-7 4h-2v2l-9 5-5 5h-3v2l-8 6-5 3h-2l-2 4-11 8-7 6-8 6h-2v2l-9 1h-3l16-12 18-14 19-14 18-13 14-10 15-12 17-13 16-12 11-8 14-12 2-3-1-5-4-6-7-10-6-7v-2l-3-1-9-11-9-10-12-14-8-8-7-8-8-10-5-5-7-9-5-5-12-14-13-16-5-5-11-8-6 1-1 2-3-1v-2l-4-2-3-3z" fill="#9F530A"/>
<path transform="translate(51,239)" d="m0 0 6 1 13 10 11 14 12 14 6 8 5 4 5 7 5 5 11 13 12 13 10 11 7 8 12 14 7 8 8 11 7 10-1 6-2 1v-4h-8l-5 2-2 1 1-5 2-3-1-5-10-13-11-14-12-14-13-13-7-8-11-12-15-16-11-11-9-11-8-8-7-8-10-11 1-4z" fill="#8B1721"/>
<path transform="translate(212)" d="m0 0h9l4 9 6 11 10 19 6 10 8 16 6 10 3 6 7 11 8 16 5 9 2 7 5-1-1 2h-2v7l4 2 5 5-1 2-9-8-5-2-9 10-8 5h-3l-1 4-6 2h-4v2l-10 6-6 2-2 3-8 3-9 5-5 3-8 4-5 3-5 4-10 4-5 4-7 3-1 2-7 3-17 9-3 3-5 2-4 2h-3v2h-2v2l-7 3-6 3h-3v2l-11 6-5 3h-9v-1l9-2 9-6 20-11 10-7 25-13 24-14 21-11 13-8 11-6 18-10 14-8 11-6 4-8v-7l-9-19-8-14-10-17-10-18-12-22-7-12-7-14z" fill="#D98008"/>
<path transform="translate(342,171)" d="m0 0 6 2 5 3 6 2 2 8h-3l1 4 5 3 6-1 4-3h3l1 7-2 4 6 1 6-2 3 6 5 4 3 3 5 4 3 5 6 4 3 4 3 8 4 3 2 3 6 1 5 2 1 4-4 9-2 3-4-1-10-9-5-5-16-15-3-4-5-3-12-12-7-6v-2l-4-2-7-6-13-13-4-2-3-4v-2h3l-1-3z" fill="#FD8A63"/>
<path transform="translate(578)" d="m0 0h7l5 6 8 7 14 14 10 8 3 5 5 4 7 8v14l-6 9-3 1-1 5-7 9-9 10-4 6h-2v2l-4 1-1 4-8 9h-2l-2 4-6 7h-2l-2 4-10 10-9 11-5 5-6 7-5 4-5 7-5 4-7 8-3 3h-2l-2 4-9 10-4 4-6 7-7 6-7 8-9 10-5 5-3 1-2 5-11 8-12 5-2 2h-7l-5-4v-2l-4-2-11-11h3l10 9 5 3v3l7 1 2-3 10-3 4-2 5-5 5-4 7-8 12-13 4-5 12-12 3-4h2l2-4h2l2-4 13-14 2-3h2l1-3h2l2-4 3-1 2-4 7-7 1-2h2l2-4 8-8 3-4h2l2-4 5-6h2l2-4 14-15 11-12 5-6h2l2-4 12-13 9-15 2-4v-9l-4-5-6-7-6-5-7-8-10-9-12-11-7-6z" fill="#E18808"/>
<path transform="translate(476,509)" d="m0 0 4 2 8 10 2 2 4 12 4 6 3 6 2 6 2 5 3 11v4h2v27l-3 9-4 9-8 8-10 6-11 3h-16l-11-3-11-6-10-8-10-13-7-11-3-4v-6l5-1 1 3h2v3h2v3h2l5 10 9 11 6 6 3 1 4 4 11 4 13-1 11-2 9-3 8-7 3-4 3-10v-16l-3-16-12-30-10-18-3-8z" fill="#FAD9CE"/>
<path transform="translate(490,473)" d="m0 0 6 3 4 5 11 9 9 9 8 7v2l4 2 12 12 16 14v2l4 2 16 16 3 2v2l4 2 3 3v2l4 2 3 2v2h2l4 5 9 7 7 8 15 16 7 7-1 4-12 14-7 5-5 5-6 7-8 2-4-1 4-5h2l2-4 20-20h2l2-4 4-2v-3l-4-2-12-13-12-11-8-7-12-12-8-7-12-12-24-22-14-12-8-7v-2l-4-2-11-11-8-7-11-10v-2z" fill="#8C1820"/>
<path transform="translate(191)" d="m0 0h10l10 19 7 13 10 18 8 14 3 6 9 13 8 16 7 13 3 8 6 10v7l-14 7-15 9h-2l1-3h3v-2l5-4-18 6-10 5-1-2 7-6 15-8 11-6 9-3v-4h-2l-6-10-6-14-13-23-16-27-14-24-13-23z" fill="#391722"/>
<path transform="translate(303,577)" d="m0 0 4 1 9 5 12 2 10 5 14 11 5 6 7 4v2l5 2 7 7 10 8 11 8 6 7 6 4v2l3 1 5 5 7 6 4 2v3l5 2 4 5v2l-10 1-9-7-10-8-5-5-9-7-5-5-11-10-9-7-5-4v-2l-4-1-11-10-8-6-7-5v-2h-3v-2l-4-1-12-9-7-5h-3l-2-2z" fill="#E08708"/>
<path transform="translate(556)" d="m0 0h13v2h2v2l4 2 4 5 8 6 8 7 2 5 4 2 4 4 5 3 5 5 7 6 4 5 2 8-2 9-4 7h-2l-2 4-7 8-15 16-7 9h-2l-1 3-17 17-11 12-6 7h-2l-2 4h-2l-2 4-9 10-5 5-6 8h-3l-2 4-15 16-7 8-15 16-9 11-8 7-10 10-10 8-2-1 11-10 8-7 11-12 7-8 8-8 9-11 14-14 7-8 8-8 7-8 9-9 7-8 7-7 7-8 31-33 11-12 5-6 5-5 6-8 1-4-5-5-4 3 2-4 3-4-20-20-8-7-9-9-8-7-9-9-8-7z" fill="#9F530A"/>
<path transform="translate(216,606)" d="m0 0v3l-8 10-7 8-9 11h-2l-2 4-12 14-9 9-9 11-14 15-9 11-9 9-7 8-5 6-13 1 3-5h2l2-4 9-10 12-14 9-10 8-10 11-13h2l2-4 7-8h2l2-5 4-5 7-6h2l2 4 3-1 2-4 12-12z" fill="#3E1723"/>
<path transform="translate(470)" d="m0 0h7l-2 19-1 4h-2l1 25 1 10 7 10 10 7 10 5v2l7 1h18l13-4 14-9 3-5h3v8l-4 2v2l-9 5-6 5-13 4h-19l-14-4-14-8-11-9-4-7-1-5v-33l5-23z" fill="#FAD9CF"/>
<path transform="translate(0,675)" d="m0 0 3 1 9 11v2h2l6 8 7 8 10 13 8 8v2h-45z" fill="#F2AE00"/>
<path transform="translate(349)" d="m0 0h23l-5 5-10 9-5 4-5 5-6 5-8 7-5 5h-2l-1 3h-2v2l-7 5-11 6-4 3-3-1 2-7-8 1 2-4 8-7 12-11 11-9 13-11h2l1-3z" fill="#DB8208"/>
<path transform="translate(32,277)" d="m0 0 6 1 7 8 5 9 2 9h2v20h2v2l-2 1-2 10-3 5v2h-2v4l-5 1-3 4-3 1v5l-4 3h-2l-4 2-1 4-10-1-1-3-1 5-4-1v3l-9-1v-5l12-7 5-3 3-2 1 4v-3l10-4 2-6h6l2 2 2-5-3-1-1-5h2v-6l4-8-4 1v-2h3v-3l-4 1-1-6 2-4-3-1 1-8h-2l-1-6-4-6v-4h2v-2h-2z" fill="#C0307C"/>
<path transform="translate(91,527)" d="m0 0 4 1-1 5-8 6-10 10-2 1-6 11-5 10-4 13v18l3 12 2 3v3l4 2 1 3 4 2 9 5 4 1h20l21-5 12-5 17-8 5-2h7l-3 1-2 4-13 5-14 7-14 6-15 4h-16l-9-2-11-6-7-6-6-10-3-8-1-9v-11l2-15 5-12 4-7 2-5 9-10h2l2-4 9-7z" fill="#DEE7B7"/>
<path transform="translate(481,472)" d="m0 0h15l13 4 12 10 5 5 8 7 5 5 13 12 5 4v2l4 2 10 9v2l4 2 16 15 8 7 12 11 8 7 9 9 2 1v2l4 2 6 5v2l4 2 6 7 2 4v7l-4 8-4 5-6 9-6 5-2 4-7 1 6-8 5-4 13-18v-8l-3-5-7-7v-2l-4-2-12-11-8-7-10-9-12-11-16-15-8-6-7-8-3-2v-2l-4-2-7-6v-2l-4-2-17-16-12-11-7-4v-2l-8-1-8-4-3 1-2-1v2l-6-1 2-1z" fill="#E18808"/>
<path transform="translate(51,276)" d="m0 0 1 2-1 2 2 1-2 4v6l3 3 1 3 2 2-1 7 4 1-3 6h2l2 6-1 6 2 1v2l-4 1 5 10v3l-8 1-1 3-2 1-3 5-2 3 5 1 3 3-5-1-6 2h-3v3l6-1-3 4h-2l-2 4h-3l-1 4h-7l-4-2-1 3-6-1v2l-5-1-9 4h-4v-9l2-1 7 2v-3h4l1-4 2 1-1 2 5-1 5 2 1-5 6-3h2l1-3 1-4h3l2-4 4-2 2 1v-4h2l-1-3 4-6 1-8 3-1v-2h-2l-1-17 1-3h-2l-4-10-5-9-4-6 7-1z" fill="#CF32B2"/>
<path transform="translate(136,497)" d="m0 0 5 1 6 4 9 11 5 5 3 5 2 2v3l4 2 7 10 9 11 8 11 3 2 3 5 4 5v2l4 2v2l4 2 4 6v3h2l5 7 1 3v11l-4 9-5 7h-2l-2 6-5 5-5 6-7 8h-2l-2 6-7 6-4 6-6 5-9 11h-2l-2 4-9 8-3 6-6 5-5 5-3 4h-2l-1 3-6 1 6-7 5-5 11-12 7-9 7-6 8-10 5-5h2l2-4 5-5h2l2-4 11-13 11-14 6-8 5-9v-10l-8-14-10-11-9-11-4-4-8-10-8-11-5-4-1-4-3-1-2-4-5-5-4-8-7-10-7-4z" fill="#E18807"/>
<path transform="translate(291,631)" d="m0 0h5l7 5v2h2v2l4 2 7 10 7 15 4 20v6l-7 2-12 1 1-2-1-1 2-1v-4l-2-1 1-4-2-13-2-9 1-2-2-1-3-9-3-2 1-5-4-2v-3l-4-2v4l-3-1 2-6z" fill="#DCE5B4"/>
<path transform="translate(187,394)" d="m0 0h2l-1 6-7 6-4 5-18 13-9 6-8 6h-2l-1 3-8 6-5 4-1 2-5 3-8 7h-2v2l-7 4h-2v2l-9 5-5 5h-3v2l-8 6-5 3h-2l-2 4-11 8-7 6-8 6h-2v2l-9 1h-3l16-12 18-14 19-14 18-13 14-10 15-12 17-13 16-12 11-8 14-12z" fill="#BC6708"/>
<path transform="translate(58,234)" d="m0 0 10 1 7 6 5 7 4 4 10 13 10 12 9 11 9 10 7 8v2l3 1 7 9 10 11 8 10 11 12 18 22 5 8 1 9-2 2-1-1-2-9-9-12v-2h-2l-6-8-9-10-9-11-10-10-6-8-7-7-6-7v-2l-3-1-7-9-8-9-6-8-5-5-7-9-9-11-5-6v-2l-4-2-4-3-8-1-6-1 4-2h3z" fill="#C86F08"/>
<path transform="translate(498,479)" d="m0 0 5 2 10 9 6 5v2l5 2 11 10 4 5 7 5v2l4 2 4 4v2l4 2 6 5 4 4v2l4 2 5 4v2h2v2l4 2 7 7 9 7 5 5 8 7 9 9v2l4 2 7 6 7 8 5 6-2 8-8 11-10 10-7 8-7 1 6-8 4-2 2-4 9-7 9-11-1-4-15-15-7-8-5-5v-2l-4-2-6-5v-2l-3-1v-2h-2v-2l-4-2-5-5-5-4-20-20-3-2v-2l-4-2-10-10-8-7-8-8-8-7v-2l-4-2-10-10-10-8z" fill="#9F530A"/>
<path transform="translate(171,382)" d="m0 0 3 3-1 5-5 9-17 12-16 12-17 13-4 3h-2v-2h2l1-5h2l2-5 4-1v-5l5-3h2v-7l9-9 3-1 5-5 11-8 9-4h3v3h2z" fill="#C0307B"/>
<path transform="translate(68,472)" d="m0 0h8v3l-7 3-2 8-7 5h-3v2h-2l-2 5-11 9-14 10-1 2-8-1h-9l-7 1-2-1-1-6 5 4 5-1 12-9 17-13 14-10z" fill="#421722"/>
<path transform="translate(192,571)" d="m0 0 3 1 6 7v2l3 1 7 8 5 8 3 4v7l-9 13h-2l-1 4-1 2h-2l-2 5-3 4h-2l-2 4-11 12-9 11-7 8-5 5-9 10-5 6-14 14-8 10-3 3h-2l-1 4h-6l3-5 16-17 13-15 13-14 9-11 10-10 9-11 9-10 9-11 8-9 2-3-1-6-11-14-12-15z" fill="#9F5309"/>
<path transform="translate(657,300)" d="m0 0h5l11 28 3-6 12-18h-14v-4h22l-1 5-13 19 14 1v5h-29l-3-7h-10l-3 7h-5l1-6 9-23z" fill="#FAF9F7"/>
<path transform="translate(316,587)" d="m0 0 11 2 8 5 5 3v2l4 1v2l4 2 11 10 11 8 5 5 16 13 5 4 3 3 2 1v2l4 2 7 6 3 3 8 7 10 8-1 2-7-1-10-9-7-5-5-5-9-7-5-5-11-10-9-7-5-4v-2l-4-1-11-10-8-6-7-5v-2h-3v-2l-4-1-11-8z" fill="#C86F07"/>
<path transform="translate(32,287)" d="m0 0 4 5 2 5-1 2h2l1 3-1 5 2 1-1 5 1 4h3v3h-3v2l4-1-2 7-3 8 1 4 2 1-1 5h-3v-2l-6 1-2 6-8 3h-2v3l-2-1-1-1-3 3-2-1 8-9 4-8 4-11 1-11 1-28z" fill="#CF33B2"/>
<path transform="translate(51,239)" d="m0 0h4l5 5 12 13 11 13 12 14 9 10 9 11 3 4-1 2-5-2-10-11-5-3-13-13-9-11-8-8-7-8-10-11 1-4z" fill="#3C1722"/>
<path transform="translate(1072,299)" d="m0 0 8 2 4 4 2 6v8l-3 7-4 4-6 1-8-3-3-4-1-3v-12l3-6 4-3z" fill="#FAF8F5"/>
<path transform="translate(838,299)" d="m0 0 8 2 4 4 2 6v8l-3 7-5 4-5 1-8-3-3-4-1-3v-12l3-6 4-3z" fill="#FAF8F5"/>
<path transform="translate(27,280)" d="m0 0 5 2-1 36-1 11-6 16-9 11-6 5-7 4h-2v-8l12-9 7-10 3-8 1-6 1-32 1-10z" fill="#F6DCD0"/>
<path transform="translate(549,300)" d="m0 0h14l6 4 3 6v10l-4 7-6 3h-13z" fill="#FBF7F5"/>
<path transform="translate(856,300)" d="m0 0h13l5 3 4 5v13l-4 6-5 3h-13z" fill="#FBFAF9"/>
<path transform="translate(212)" d="m0 0h5l8 16 10 19 5 9 9 15 8 16 8 14 8 13 7 14 2 7-1 7-3 4h-2l1-11-5-12-8-14-6-11-8-14-10-18-12-22-7-12-7-14z" fill="#C86F08"/>
<path transform="translate(993,300)" d="m0 0h15l4 2 2 7-2 6 2 2v8l-4 4-2 1h-15z" fill="#FBFAF8"/>
<path transform="translate(477)" d="m0 0h5l-1 17-2 14v7l1 6 1 9 3 7v2l4 2 3 5 5 2 1 3 6 3v2l2 2-7-1-13-8-7-6-5-8-1-10v-25h2l1-16z" fill="#A0530A"/>
<path transform="translate(220,164)" d="m0 0 2 1-6 5-17 10-14 7-21 12-22 12-14 8-9 6-20 11-4 3h-7l-11-3v-1l10 1 7 1 4-5h3l2-4h2l1-3 9-3-2-1 1-3 5-3h7l3-3v-2l9-3h6v-2l11-5 5-4 11-6 14-9 9-1v-2l11-5 7-4h2v-2z" fill="#9F530A"/>
<path transform="translate(613,300)" d="m0 0h6l4 8 5 12 8-20h7v30h-5l-1-16-6 15-5 1-4-8-3-8-1 16h-5z" fill="#FBFAF9"/>
<path transform="translate(217)" d="m0 0h4l4 9 6 11 10 19 6 10 8 16 6 10 3 6 7 11 8 16 5 9 2 7 5-1-1 2h-2v7l4 2 5 5-1 2-9-8-5-2-9 10-5 3-2-1 9-9h3l2-4 1-7-2-7-8-16-8-13-14-25-6-11-7-12-6-12-8-14-5-10z" fill="#E08708"/>
<path transform="translate(349)" d="m0 0h9l-6 7-11 9-3 3h-2l-2 4-8 6-4 5-6 2-2 6-3 4-1 4-9 7-1 2-2-1 2-7-8 1 2-4 8-7 12-11 11-9 13-11h2l1-3z" fill="#992425"/>
<path transform="translate(1088,300)" d="m0 0h5l4 15 1 1 5-16h5l5 17 4-16 1-1h5l-1 8-5 20-1 2h-5l-5-17-2 4-4 13h-5l-3-9-4-17z" fill="#FAF8F6"/>
<path transform="translate(49,419)" d="m0 0h7v2h3v3l-7-1-2 4-2 2-3 2 4 1 7-2 1-4h3v3h-2l1 4-3 4h-2v2l-2 1-1 4h-6l-1 3-9 1h-4l2-6h2v-3h-4v2h-2l-1-3 2-4-3 1-1 6-4 2v-5l-1-4 1-2h2l2-4 11 2 1-2h7l-1-4h2v2h2z" fill="#D950BD"/>
<path transform="translate(201)" d="m0 0 5 1 11 22 9 16 12 22 5 8 6 11 12 21 11 22 2 11-2 2-2-7-7-13-4-10-9-16-5-10-9-13-6-12-9-16-8-14-12-24z" fill="#8D1821"/>
<path transform="translate(803,300)" d="m0 0h15l5 3 1 2v8l-4 5 5 9v3h-5l-6-10v-2l-5 1-1 11h-5z" fill="#FAFAF8"/>
<path transform="translate(484,514)" d="m0 0 7 6 5 8 6 15 8 16 3 8 2 11v19l-4 12-6 11-10 9-2-1 9-10 5-10 2-8 1-27h-2l-5-19-2-2-2-7-5-9-4-9-2-5-4-4z" fill="#9C2825"/>
<path transform="translate(431,435)" d="m0 0 4 2 6 9 6 14 2 10-1 7-10 9-9 6-4 5-7 5h-2l-2 4-6 5-5 5-15 13-3 1-2 4-6 5h-3l-1 3h-2l-2 4-2 2h-3l-1 3-5 4h-3v-2l4-2 12-12 8-7h2v-2l11-9 16-15 5-4h2v-2l16-14 11-8 2-2v-10l-5-16-6-10z" fill="#DF870C"/>
<path transform="translate(777,300)" d="m0 0h16l5 3 2 4-1 7-4 4-3 1h-9v11h-6z" fill="#FBF8F5"/>
<path transform="translate(191)" d="m0 0 5 1 8 14 7 12 6 11 9 16 7 11 6 12 3 4 3 7 10 19 4 10 5 8-1 3v-2h-2l-6-10-6-14-13-23-16-27-14-24-13-23z" fill="#25536A"/>
<path transform="translate(0,22)" d="m0 0 6 2 2 2 5 2 2 4 19 11 13 5 5 2 41 1-3 2-9 4-7 1h-14l-22-8-15-8-15-10-8-5z" fill="#DEE5B9"/>
<path transform="translate(161,613)" d="m0 0h7l-3 1-2 4-13 5-14 7-14 6-15 4h-16l-9-2-4-2v-2l4-2 4 1h20l21-5 12-5 17-8z" fill="#E0E7BB"/>
<path transform="translate(710,300)" d="m0 0h6l12 18 1-18h5v30h-5l-12-18-1 18h-5l-1-9z" fill="#FBFAF9"/>
<path transform="translate(521,300)" d="m0 0h5l7 10 5 8 1-18h5v30h-5l-12-18-1 18h-5z" fill="#FBFBFA"/>
<path transform="translate(343,257)" d="m0 0 6 1 10 10 5 4v4l-14 8-5 1-3-5-1-17z" fill="#F3B000"/>
<path transform="translate(750,299)" d="m0 0 8 2 4 4v5h-5l-3-5h-6l-3 5v10l1 4 8 1 2-1 1-5h-6l-1-4 1-1h11l1 1v11l-3 3-10 2-7-3-4-6v-15l5-6z" fill="#FAF9F5"/>
<path transform="translate(363,70)" d="m0 0 5 1 3 2v2l-6 4-1 8 4 2v4l-5 1-5-1-4 1-8-1v-4l-8 1-1-4h2v-2h5l-1-4 3-3h3v4l7-3 6-5z" fill="#FD8C65"/>
<path transform="translate(594,300)" d="m0 0h6l11 29v1h-6l-3-7h-10l-3 7h-6l6-17z" fill="#FAF8F6"/>
<path transform="translate(291,631)" d="m0 0h5l7 5h-3v2l12 24 5 25 1 8-10 1 1-2-1-1 2-1v-4l-2-1 1-4-2-13-2-9 1-2-2-1-3-9-3-2 1-5-4-2v-3l-4-2v4l-3-1 2-6z" fill="#E4D9D7"/>
<path transform="translate(34,233)" d="m0 0h4l5 6 8 7 12 13 11 12 13 15 1 2-4-2-4-5-4-1 1 5-3 1-4-3v-3l4-1v-5l-4-4-3-2-2-3-1 3 2 1h-2v3l-5 3h-4v-6h3l-2-4 1-4 3-3h-2l-2-3h-7l-3-1 1-3h4l-3-5-5-1-2-2-10-2-3 1v-2l-3-1z" fill="#C9319D"/>
<path transform="translate(1018,300)" d="m0 0h20v4h-14v8h12v5h-12v8h14v5h-20z" fill="#FBF6F4"/>
<path transform="translate(967,299)" d="m0 0 9 2 3 4 1 4-5 1-2-4-2-1h-6l-1 4 9 4 5 3 2 7-3 5-3 2h-10l-5-3-2-3v-4h5l2 4 7 1 2-1-1-5-10-4-4-4v-6l5-5z" fill="#FAF8F5"/>
<path transform="translate(307,583)" d="m0 0 4 2 10 10 2 1v2l4 2 8 8 2 1v2l-5-2-3-2-2 5 2 3-2 1-5-5-4-2-4-6-9-8-4-3 1-3 4-2z" fill="#E18907"/>
<path transform="translate(919,299)" d="m0 0 9 2 3 4 1 5h-6l-1-5h-7l-3 3-1 10 1 6 7 1 3-2 2-4 5 1-2 6-5 4h-10l-5-4-2-5v-13l4-6z" fill="#F9F8F3"/>
<path transform="translate(882,300)" d="m0 0h5l1 21 1 3 6 1 3-2 1-23h5v25l-6 5-5 1-7-2-4-5z" fill="#FBFBFA"/>
<path transform="translate(674,300)" d="m0 0h22l-1 5-13 19 14 1v5h-22l-1-2 3-6 12-18h-14z" fill="#FBF8F6"/>
<path transform="translate(269,405)" d="m0 0h5l-5 4-8 10-16 23-6 9-11 16-5 10v6l4 6 10 6-4 1-9-6-5-6v-8l5-10 12-17 16-23 12-17z" fill="#E38614"/>
<path transform="translate(336,213)" d="m0 0 4 1 11 17 7 8 5 5 10 9 10 7 5 5v2l4 2 15 13 7 4-4 1-9-6-14-12-3-2v-2l-4-2-3-2v-2l-4-2-12-11-8-7-7-8-6-10-4-6z" fill="#CD750B"/>
<path transform="translate(112)" d="m0 0h7l-1 14-4 10-6 16-5 4-4 5-3 1-1-5h2l2-4 4-5 4-9 4-16z" fill="#DFE5B7"/>
<path transform="translate(121)" d="m0 0h6l-2 15-6 17-7 11-4 2-1 3-10 6-3-1 9-7 3-1 2-4 6-13 5-18z" fill="#25536A"/>
<path transform="translate(251,253)" d="m0 0 6 1 15 8 8 7 7 10 3 10v16l-4 11-8 11-4 2v2l-7 4-2-1 7-5 8-10 4-8 2-9v-13l-2-7-6-10-10-9-17-9z" fill="#E78B19"/>
<path transform="translate(271,266)" d="m0 0 4 2 7 8 4 8 1 5v13l-3 12-7 10-5 6-14 9-14 5-9 2-20-1-21-4-3-2 17 2 5 1h25l12-3 12-5 10-8 6-7 4-8 2-9v-15l-4-10-9-10z" fill="#F7DDCE"/>
<path transform="translate(487,300)" d="m0 0h19v4l-13 1v7l12 1v4l-12 1-1 12h-5z" fill="#FBFBFA"/>
<path transform="translate(1071,304)" d="m0 0 6 1 3 4v12l-5 5-5-1-3-3-1-3v-8l3-6z" fill="#F4B100"/>
<path transform="translate(837,304)" d="m0 0 6 1 3 4v12l-5 5-5-1-3-3-1-3v-8l3-6z" fill="#F4B100"/>
<path transform="translate(177,392)" d="m0 0h6l2 1v5l-9 5-4 2-1 2-9 5-7 4-3-1 14-16 7-6z" fill="#391722"/>
<path transform="translate(1041,300)" d="m0 0h6v25h13v5h-19z" fill="#FBF6F4"/>
<path transform="translate(317,160)" d="m0 0 4 1v2h2l6 7 11 9 2 3 5 3 6 7 5 3 5 5 6 5v2l3 1 18 18 5 3 9 10 8 7v3l-6-5-5-5-16-15-12-11-29-27-11-9-16-16z" fill="#E18808"/>
<path transform="translate(276,379)" d="m0 0 4 2 7 7 2 4v9l-4 4-5 1-9-1-6 4-13 18-13 19-16 23-3 7v8l6 7 3 3-5-2-6-7-1-2v-7l5-10 10-14 11-16 9-13 12-16 6-4h14l3-3-1-9-7-8z" fill="#F4DECB"/>
<path transform="translate(932,300)" d="m0 0h24v4h-9v26h-5l-1-25-9-1z" fill="#FBFBFB"/>
<path transform="translate(419,497)" d="m0 0 2 1-3 4h-2l-2 4-6 5-5 5-15 13-3 1-2 4-6 5h-3l-1 3h-2l-2 4-2 2h-3l-1 3-5 4h-3v-2l4-2 12-12 8-7h2v-2l11-9 16-15 5-4h2v-2z" fill="#C8720C"/>
<path transform="translate(413,585)" d="m0 0 4 2 7 8 6 8 8 10 8 8 9 5v1h-6l-8-5v-2l-4-1-9-9-9-13-1-5h-2v-3h-2z" fill="#9C2625"/>
<path transform="translate(52,82)" d="m0 0h43l1 4-1 1h-43l-1-4z" fill="#371824"/>
<path transform="translate(52,64)" d="m0 0h43l1 4-1 1h-43l-1-4z" fill="#302E3F"/>
<path transform="translate(862,304)" d="m0 0 7 1 3 3 1 3v8l-3 5-2 1h-7v-20z" fill="#F4B100"/>
<path transform="translate(166,618)" d="m0 0 2 1-6 4-18 8-12 5-9 4-11 3h-24l-1-2h17l16-3 4-4 13-6 16-4 1-2 10-3z" fill="#76BAEA"/>
<path transform="translate(52,46)" d="m0 0h40l4 2-1 3h-43l-1-4z" fill="#342230"/>
<path transform="translate(55,51)" d="m0 0h38l-3 2-9 4-7 1h-14l-8-3 1-3z" fill="#CFE2BE"/>
<path transform="translate(358)" d="m0 0h5l-4 5-11 9-10 10-10 8-7 7-4 1-2 4h-2l2-6 3-3 5-3 6-7 6-4 5-5 10-9z" fill="#FB5E4F"/>
<path transform="translate(555,304)" d="m0 0 8 1 3 4v12l-4 4h-7z" fill="#F4B100"/>
<path transform="translate(82,544)" d="m0 0 2 1-9 12-7 14-4 16v16l2 12-3-3-3-10v-17l4-15 8-14z" fill="#25536A"/>
<path transform="translate(19,320)" d="m0 0 4 1-2 15-7 11-8 7-6 3v-11l4-1v-4l4 1 1 3 3 1v-2h2l1-6 2-2 1-6h2v-2h-3l1-4h2z" fill="#D23AB5"/>
<path transform="translate(305,640)" d="m0 0 4 2 7 10 7 15 4 20v6h-4l-4-20-5-17-6-11z" fill="#CED6DD"/>
<path transform="translate(477)" d="m0 0 4 1-2 21-1 3-1 21-2 3-2-8v-18l3-21z" fill="#942222"/>
<path transform="translate(84,540)" d="m0 0 2 2-5 5-8 9-8 14-4 15v17l3 10 6 9-1 3-5-4-4-9-2-9v-18l5-16 8-14 3-5 8-7z" fill="#89CFE9"/>
<path transform="translate(89,539)" d="m0 0v3l-5 3 1-5zm-6 6 1 3-7 8v-3zm-8 11 1 3-7 14-3 16v17l2 7 5 9 9 6-2 1-7-3-3-2-4-7-3-14v-16l4-16 7-14z" fill="#76B6E8"/>
<path transform="translate(149,203)" d="m0 0 2 1-9 5-11 6-14 9-9 5-5 3h-2l2-4h2l1-3 9-3-2-1 1-3 5-3h7l3-3v-2l9-3h6v-2z" fill="#3E1722"/>
<path transform="translate(406)" d="m0 0h2v2l-5 5-7 8-6 5-7 8-5 5-11 12h-2l-2 4-7 7-7 8-8 7v-3l21-21 7-8 10-11 5-5 7-8 5-5 4-2 2-4z" fill="#E18808"/>
<path transform="translate(361,418)" d="m0 0 4 1 9 6 8 9 4 4 7 10 3 8v8l-5 5h-2l3-6-1-10-6-11-9-10-7-7-8-5z" fill="#E18B0B"/>
<path transform="translate(446,510)" d="m0 0 1 3-7 8-5 4-7 8-6 7h-2l-2 4-5 5h-2l-1 4h-2v3l-5 3-2 3h-2v3l-2 1-3 6h-5l2-4 17-17 2-3h2l2-4 11-11 7-8 7-7 5-6h2z" fill="#FD7C4A"/>
<path transform="translate(240,354)" d="m0 0 4 1 12 6 16 11 10 8 8 8 2 3v10l-3 4h-2l1-4v-9l-4-6-10-9-17-12-17-10z" fill="#E88E13"/>
<path transform="translate(0,294)" d="m0 0h8l-1 3 2 1 1-2 7 1v4l-4 1 1 5h-2v2h-2v-2l-7-1-3-1z" fill="#D035B3"/>
<path transform="translate(81,632)" d="m0 0 5 1 22 1-1 6h-16l-9-2-4-2v-2z" fill="#E3EAC2"/>
<path transform="translate(344,403)" d="m0 0 4 1-11 7-11 10-3 6 1 6 6 8 10 10 1 2-6-2-12-14-3-4v-9l3-5 11-9z" fill="#E59107"/>
<path transform="translate(275,206)" d="m0 0 5 2 5 5 6 12 2 9-1 9-4 6h-2l1-4 1-3v-12l-4-10-5-8-4-4z" fill="#CC7311"/>
<path transform="translate(378,583)" d="m0 0v3l-5 5 1 5 4 2 13 13 7 6 6 7 5 5 4 5-5-1-9-10-6-5-7-8-14-14-2-1 1-5z" fill="#FD7C4A"/>
<path transform="translate(700,300)" d="m0 0h5v30h-5z" fill="#FCFCFC"/>
<path transform="translate(510,300)" d="m0 0h5v30h-5z" fill="#FCFCFC"/>
<path transform="translate(151,203)" d="m0 0h2l-1 3-19 10-14 9-20 11-4 3h-7l-11-3v-1l10 1 7 1 4-5 9-3 5-3 26-16 12-6z" fill="#9D4D0C"/>
<path transform="translate(824,438)" d="m0 0 7 1 1 3v8l-4 4-5-1-2-3v-9z" fill="#A9A9AB"/>
<path transform="translate(365,321)" d="m0 0 4 1 3 6-1 8-4 5-14 9-11 6-10 5h-2v-2l14-7 16-10 6-5 2-5-1-6z" fill="#E68C12"/>
<path transform="translate(103,446)" d="m0 0 4 1-6 6h-2l-2 5-5 3-9 6h-2v2h-2l-1-3 4-5 14-10z" fill="#431722"/>
<path transform="translate(317,210)" d="m0 0h12l6 3v2h2l6 10 9 12 7 7 11 9 7 6 1 3-4-2-11-10-8-7-9-9-8-13v-2l-4-1-2-4-4-2h-10l-9 6 2-4z" fill="#FBCCBD"/>
<path transform="translate(273,488)" d="m0 0 4 2 2 4v8l-5 10-8 9-10 6-6 3h-3v-2l12-6 7-5 7-11 2-4v-8z" fill="#E48816"/>
<path transform="translate(108,216)" d="m0 0m-2 1h2v2l-8 7-12 4 1 5h-12l-2-2 1-3 8-2 19-9z" fill="#255167"/>
<path transform="translate(413,634)" d="m0 0 8 6 6 7 8 7 4 5 3 1 6 7v2l4 2 2 3h-3l-8-7-7-7v-2l-4-2-20-20z" fill="#FD7C4A"/>
<path transform="translate(269,405)" d="m0 0h5l-5 4-8 10-16 23-5 3 2-5 10-14 12-17z" fill="#E58A15"/>
<path transform="translate(363)" d="m0 0 4 1-13 11-5 4h-2l-2 4-14 12-7 7-8 6-2-1 5-5 8-7 9-8 8-7 13-12z" fill="#9F530A"/>
<path transform="translate(31,290)" d="m0 0h1l1 11-1 18 1-1 1-10 2-1 2 5h-2l1 8-1 5h2l-2 8-4-1-1-6h-1z" fill="#DA52BE"/>
<path transform="translate(119)" d="m0 0h2l-1 10-6 21-6 11-5 5-9 7h-5l-1 3-6 1-1-2 12-5 8-5 5-5 3-5 7-21 1-1z" fill="#8DCFE6"/>
<path transform="translate(560,64)" d="m0 0 3 1v9l-7 8-6 5-9 3-3-1 14-10 8-8z" fill="#9F530A"/>
<path transform="translate(379,645)" d="m0 0 4 1 5 5 14 12 9 7v2l4 2 4 5-5-1-13-12-10-9-4-3v-2l-4-2z" fill="#8D1821"/>
<path transform="translate(234,159)" d="m0 0 2 1-3 5-8 3-9 5-5 3-8 4-5 3-2-1 6-5 17-10 11-6z" fill="#DA8108"/>
<path transform="translate(365,462)" d="m0 0h5l-5 4-2 2v6l6 8 11 11 4 3-6-1-8-7-7-8-5-7v-5l3-3h2v-2z" fill="#E58E0B"/>
<path transform="translate(264,129)" d="m0 0 5 5-5 1h-8l-10 7-17 7-5 2 4-4 15-8 11-6z" fill="#25536A"/>
<path transform="translate(127,493)" d="m0 0 4 2 9 8 7 8 6 8 3 5-1 2-5-5-9-11-5-6-3-1v-2h-2l-3-6z" fill="#995313"/>
<path transform="translate(34,233)" d="m0 0h4l5 6 4 4-4 2-2-2-10-2-3 1v-2l-3-1z" fill="#CD31AB"/>
<path transform="translate(108,218)" d="m0 0v3l-13 13-1 4-7-1-4-2h6l-1-5 8-4 5-2z" fill="#381722"/>
<path transform="translate(33,279)" d="m0 0 4 1 6 8 3 6-1 5-4-1-4-8-4-4z" fill="#8D1821"/>
<path transform="translate(103,304)" d="m0 0 7 6 7 7 7 8 11 12 9 9-1 2-9-9h-5l1-4-4-3-3-1 2-1-6-7-3-2-1-3-7-5-3-5-2-1z" fill="#C63091"/>
<path transform="translate(173,284)" d="m0 0 6 2 9 14 4 7 4 4 8 4-4 1-6-3-7-7v-3h-2l-8-14-4-3z" fill="#E68B11"/>
<path transform="translate(471,27)" d="m0 0h1l2 31 7 10 8 6-2 1-10-8-5-6-2-8v-21z" fill="#FC8155"/>
<path transform="translate(427,289)" d="m0 0 4 2 1 3v7l-6 7-13 8-6 2 1-3 8-4 9-7 3-4z" fill="#E79407"/>
<path transform="translate(239,442)" d="m0 0 2 1-11 16-9 14-1 3v8l6 7 3 3-5-2-6-7-1-2v-7l5-10 10-14z" fill="#F7DDCE"/>
<path transform="translate(783,304)" d="m0 0h7l3 1 1 7-2 2h-9z" fill="#F4B100"/>
<path transform="translate(853,193)" d="m0 0h8l2 5-3 5h-5v4l2 1h-5v-14z" fill="#F9EFE8"/>
<path transform="translate(419,497)" d="m0 0 2 1-3 4h-2l-2 4-6 5-5 5-9 8-2-1 5-6 5-5 11-10h2v-2z" fill="#C77208"/>
<path transform="translate(384,263)" d="m0 0 4 2v2l4 2 15 13 7 4-4 1-9-6-14-12-3-3z" fill="#DE8014"/>
<path transform="translate(444,476)" d="m0 0v3l-2 4-13 9-4 5-5 2-1-3 6-4 5-5 12-9z" fill="#E4851C"/>
<path transform="translate(292,125)" d="m0 0h4l2 6 2 2 2 8 3 2-1 2-4-2-6-8-5-5v-3z" fill="#FD8B64"/>
<path transform="translate(59,584)" d="m0 0h1l1 18 3 10 6 9-1 3-5-4-4-9-2-9v-17z" fill="#7FCAED"/>
<path transform="translate(809,304)" d="m0 0 8 1 2 5-4 4h-6l-1-1v-8z" fill="#F4B100"/>
<path transform="translate(111)" d="m0 0h1v11l-5 19-5 9-5 6h-2v2l-5-1 4-2h2l2-5 3-1 2-6 4-11z" fill="#7ECDF1"/>
<path transform="translate(162,402)" d="m0 0 2 1-10 10-2 4-7 4-4-1 7-8z" fill="#771721"/>
<path transform="translate(364,375)" d="m0 0 5 2 8 8 2 5v8l-5 5-2-1 3-5v-7l-3-6-8-7z" fill="#E28C08"/>
<path transform="translate(343,257)" d="m0 0h3v27l-3-1-2-13v-7z" fill="#D0780F"/>
<path transform="translate(336,213)" d="m0 0 4 1 11 17 2 5 2 4-6-5-7-10-6-10z" fill="#C36E08"/>
<path transform="translate(286,302)" d="m0 0h1l1 9-5 10-7 8h-2v2l-7 4-2-1 7-5 8-10 4-8z" fill="#E7910E"/>
<path transform="translate(999,316)" d="m0 0h6l4 3-1 5-1 1h-9v-8z" fill="#F4B100"/>
<path transform="translate(48,180)" d="m0 0h2v4h3l3 6v3h2l4 9 3 6-1 3-4-5-9-17v-4h-2z" fill="#9DD5DD"/>
<path transform="translate(324,87)" d="m0 0v3l-9 11-5 5-8 7-5 5-6 5 2-4 14-14 5-6 6-5z" fill="#DF8608"/>
<path transform="translate(479,475)" d="m0 0 4 2h-3l-2 4-5 5h-2v2l-9 9-6 7-3-1 11-12 10-10z" fill="#FD7C4A"/>
<path transform="translate(374,297)" d="m0 0 3 1-9 6-10 7-1 9-3-1-1-2v-6l12-9z" fill="#E59007"/>
<path transform="translate(803,193)" d="m0 0 6 1 1 6-2 3h-6l-2-2 1-7z" fill="#F8F3EC"/>
<path transform="translate(343,178)" d="m0 0 5 1v2h4l3 1 1 5-3 1-2 2-6-6-4-2-1-3z" fill="#FD7C4A"/>
<path transform="translate(844,193)" d="m0 0 6 1 1 6-2 3h-6l-2-3 1-6z" fill="#F9F4EE"/>
<path transform="translate(751,193)" d="m0 0h5l3 3-1 5-2 2h-5l-2-2v-6z" fill="#F9F3EE"/>
<path transform="translate(2,454)" d="m0 0h1v5l3-1 1-4 2 2 5 1v-2h4v2l-4 1v2h-2v2l-3 1v-2l-7 2-2 1v-9z" fill="#D951BD"/>
<path transform="translate(286,281)" d="m0 0 3 3 1 5v16l-2 5h-1l-1-21-1-5z" fill="#DB800E"/>
<path transform="translate(415,251)" d="m0 0 4 2 8 7 6 4v3l7 1 2-3 3 1-5 5-7-1-3-3v-2l-4-2-11-11z" fill="#DA8108"/>
<path transform="translate(188,180)" d="m0 0h5l-3 2-17 10-10 6-6 2 3-4 11-6 14-9z" fill="#491722"/>
<path transform="translate(154,525)" d="m0 0 4 2 9 11 1 4 4 1 5 7-1 4-11-14-11-13z" fill="#BC995B"/>
<path transform="translate(52,422)" d="m0 0 5 1v4l-1 4-9 2-3-2 6-5z" fill="#CF32B2"/>
<path transform="translate(240,354)" d="m0 0 4 1 12 6 16 11 2 4-4-2-16-11-14-8z" fill="#E89509"/>
<path transform="translate(228,228)" d="m0 0 3 1-3 5 1 7 5 4 7 3-4 1-9-4-4-6v-6z" fill="#E58D10"/>
<path transform="translate(89,539)" d="m0 0v3l-5 3 1-5zm-6 6 1 3-7 8v-3zm-8 11 1 3-7 14-2 5-1-4 5-12z" fill="#75B6E9"/>
<path transform="translate(365,460)" d="m0 0h9l3 3-9-1-5 1v2l-4 4 1 6 10 11-1 2-6-5-6-9v-7z" fill="#F5DDCC"/>
<path transform="translate(999,304)" d="m0 0h6l3 2-1 5-1 1h-7l-1-1v-6z" fill="#F4B100"/>
<path transform="translate(165,285)" d="m0 0h8l5 4 7 12v2h2l3 5 5 6-5-2-7-9-8-14-3-2-8 1z" fill="#F8DCCF"/>
<path transform="translate(151,203)" d="m0 0h2l-1 3-19 10-12 8-2-1 9-7 14-8z" fill="#9F530A"/>
<path transform="translate(142,691)" d="m0 0v3l-14 15-11 12-3 4-2-1 10-11 7-8 9-10z" fill="#8D1920"/>
<path transform="translate(220,164)" d="m0 0 2 1-6 5-17 10-6 2 1-4 11-5 7-4h2v-2z" fill="#95470E"/>
<path transform="translate(230,225)" d="m0 0h12l7 3 3 3-5-2-9-2-8 1-5 5v6l1 4-3-2-1-7 3-6z" fill="#F9DCD0"/>
<path transform="translate(509,14)" d="m0 0 4 5v2l6-5v7l-2 2-8-4-2 1-5-1 1-3 5-2z" fill="#FD8C65"/>
<path transform="translate(19,320)" d="m0 0 4 1-2 15-5 5-1-3 2-2 1-6h2v-2h-3l1-4h2z" fill="#D035B3"/>
<path transform="translate(32,232)" d="m0 0h2v2l-11 8-10 8-11 8h-2v-2l11-8 6-4 4-4 10-7z" fill="#FC6D4D"/>
<path transform="translate(149,203)" d="m0 0 2 1-9 5-11 6-4 2 2-5v-2l9-3h6v-2z" fill="#481722"/>
<path transform="translate(59,264)" d="m0 0h5v4l2 1h-2v3l-5 3h-4v-6l3-1z" fill="#D036B3"/>
<path transform="translate(863,188)" d="m0 0h12l-1 2-6-1v6l6-2v5l-1-2h-5v6l8-2v3h-12l1-2v-11z" fill="#F9F3ED"/>
<path transform="translate(831,187)" d="m0 0h2l1 6h4l2 10h-5l2-1v-7h-4l1 8h-5l1-2v-11l-1-2z" fill="#F4F3E5"/>
<path transform="translate(289,228)" d="m0 0 3 2 1 9-3 8-4 2 1-4 1-3z" fill="#C77008"/>
<path transform="translate(342,255)" d="m0 0 6 1 1 2h-6l-1 5 1 17 2 4 7-1-1 2-7 1-3-4-1-9v-15z" fill="#F2DCC9"/>
<path transform="translate(285,302)" d="m0 0h1l-1 9-4 8-9 11-4 3-2-1 11-11 5-10z" fill="#FBDCD2"/>
<path transform="translate(161,613)" d="m0 0h7l-3 1-2 4-10 4-3-1 4-2-1-3z" fill="#DDE6B4"/>
<path transform="translate(879,193)" d="m0 0h6l2 9-5 1h-4l1-5 4-3-5 1z" fill="#F4E7BD"/>
<path transform="translate(709,188)" d="m0 0h6l1 10h2l1-10 4 1-5 12-2 2-3-7-2 1v-8z" fill="#F9F6F2"/>
<path transform="translate(393,618)" d="m0 0 4 2 10 10 2 3 4 2 6 7 3 4-4-2-5-4-5-5-6-7-5-5z" fill="#DF8608"/>
<path transform="translate(273,488)" d="m0 0 4 2 2 4v8l-4 8-2-1 2-7v-8z" fill="#DC820C"/>
<path transform="translate(264,488)" d="m0 0h6l5 4 1 2v8l-6 11-4 5h-2l2-4 6-9 1-2v-9l-4-4-5-1z" fill="#FADCD1"/>
<path transform="translate(363,302)" d="m0 0 2 1-11 8 1 9 10 2 2 4-3-2-10-2-3-4v-7l10-8z" fill="#F9D6C7"/>
<path transform="translate(0,503)" d="m0 0 5 4 1 7h6l-3 3-5-1-4-4z" fill="#C0307B"/>
<path transform="translate(111,382)" d="m0 0h5l-1 4h-2l1 6-4 1-2 2-3-4h4v-6z" fill="#CF32B2"/>
<path transform="translate(761,193)" d="m0 0h7l2 2 1 8h-5l1-8-3 1-1 6 2 1h-5v-9z" fill="#F5EEE1"/>
<path transform="translate(819,188)" d="m0 0h8l-1 4-2-2-4-1v4l5 2 3 3-1 4-1 1h-6v-1h5l-1-4-6-4-1-3z" fill="#F7F4EB"/>
<path transform="translate(425,489)" d="m0 0 2 1-5 5-3 1-2 4h-2v2l-10 8-4 3 2-4 15-14z" fill="#FBCDBE"/>
<path transform="translate(186,396)" d="m0 0v3l-12 11-14 10-2-1 13-10 14-12z" fill="#9F530A"/>
<path transform="translate(265,141)" d="m0 0 3 1-3 4h-3l-1 4-6 2-4-1 5-3 4-4z" fill="#DA8108"/>
<path transform="translate(344,403)" d="m0 0 4 1-11 7-10 9-2-2 11-10z" fill="#E69207"/>
<path transform="translate(113,639)" d="m0 0h6v2l-7 2h-24l-1-2h17z" fill="#75B6E9"/>
<path transform="translate(418,308)" d="m0 0 2 1-9 6-10 4-6 1-6-2v-1l14-1 12-6z" fill="#F4DECB"/>
<path transform="translate(234,159)" d="m0 0 2 1-3 5-8 3-3 2-3-1 6-5z" fill="#DD8408"/>
<path transform="translate(304,44)" d="m0 0 3 1-7 11-1-2 1-3-8 1 2-4 5-1z" fill="#FB6755"/>
<path transform="translate(899,193)" d="m0 0h5l2 4h-7l1 3h5l-1 3h-5l-2-2v-6z" fill="#F7ECD0"/>
<path transform="translate(780,193)" d="m0 0h5l2 4h-7l1 3h5l-1 3h-5l-2-2v-6z" fill="#F6EBCD"/>
<path transform="translate(725,193)" d="m0 0 5 1 1 3h-7l1 3 6-1-2 4h-5l-2-3 1-6z" fill="#F4E9C5"/>
<path transform="translate(162,398)" d="m0 0h3l-1 4-10 7-4-1 8-7 3-1z" fill="#C9319C"/>
<path transform="translate(321,435)" d="m0 0 7 6 8 10 7 3v1l-7-1-3-3v-2l-3-1-9-11z" fill="#F5DDCC"/>
<path transform="translate(352,347)" d="m0 0 2 1-4 4-16 8-4 1v-2l14-7z" fill="#E69305"/>
<path transform="translate(317,210)" d="m0 0h12l6 3v2h2l1 3-3 1-3-5-4-2h-10l-9 6 2-4z" fill="#F6DCCB"/>
<path transform="translate(239,442)" d="m0 0 2 1-11 16-5 7-2-1 9-13z" fill="#F9DCD0"/>
<path transform="translate(365,321)" d="m0 0 4 1 3 6-1 8-1 2h-2v-9l-3-6z" fill="#D77E0D"/>
<path transform="translate(104,42)" d="m0 0 1 3-8 7-4 2h-4l-1 3-6 1-1-2 12-5 8-5z" fill="#85CDEB"/>
<path transform="translate(328,602)" d="m0 0 7 6 2 1v2l-5-2-3-2-2 4-2-4-2-2z" fill="#CA7108"/>
<path transform="translate(88,288)" d="m0 0 7 6 8 8-1 2-3-3-6-1 1-5-3-1v-2h-2z" fill="#C83199"/>
<path transform="translate(77,274)" d="m0 0 6 5v2l4 2 9 10 2 4-7-6-9-9-5-6z" fill="#8D1821"/>
<path transform="translate(36,157)" d="m0 0 5 5 2 3v6l3 1 2 8-3-2-8-17z" fill="#B8DCCB"/>
<path transform="translate(369,541)" d="m0 0 2 3-4 4h-3l-1 3-5 4h-3v-2l4-2 5-5z" fill="#D07710"/>
<path transform="translate(219,482)" d="m0 0 4 1 4 6 10 6-4 1-9-6-5-6z" fill="#E7900E"/>
<path transform="translate(438,254)" d="m0 0v3l-3 5 3 4 4 1-2 2-5-1-2-1-1-5 4-6z" fill="#9F530A"/>
<path transform="translate(312,44)" d="m0 0 4 2-9 9-7 4 2-4 8-6 1-4z" fill="#CF730E"/>
<path transform="translate(44,499)" d="m0 0h2v2l2 1-11 9h-2l2-4 4-3-1-3z" fill="#8D1821"/>
<path transform="translate(399,276)" d="m0 0 15 10-4 1-9-6-4-4z" fill="#E48719"/>
<path transform="translate(108,230)" d="m0 0h2l-1 3-12 7h-9v-1l9-2 9-6z" fill="#DE8508"/>
<path transform="translate(162,199)" d="m0 0 2 1-5 5-9 5-2-1v-2z" fill="#D87F08"/>
<path transform="translate(560,64)" d="m0 0 3 1v7l-6 7h-2v-4l5-4z" fill="#993A15"/>
<path transform="translate(220,697)" d="m0 0h5l7 4-2 2 3 4-4-2-4-3h-2v-2l-3-1z" fill="#D4D7DB"/>
<path transform="translate(66,615)" d="m0 0 4 2 4 6 8 5-2 1-7-3-3-2-4-7z" fill="#69A7D6"/>
<path transform="translate(419,497)" d="m0 0 2 1-3 4h-2l-2 4-3 3-4-1 5-5 3-1v-2z" fill="#C26C0A"/>
<path transform="translate(122,493)" d="m0 0h5l-1 2-9 5-4 1-8-4 4-1 3 2 5-1z" fill="#DDE6B4"/>
<path transform="translate(19,276)" d="m0 0h13v5h2v2l-3-1-1-3-4-1-2 5-2-4z" fill="#CE31AF"/>
<path transform="translate(171,192)" d="m0 0m-1 1v3l-15 8-4-2 12-5z" fill="#91490E"/>
<path transform="translate(702,188)" d="m0 0h6l-2 1 4 8 1 3-1 3h-2l-4-11v-3z" fill="#FAF4F0"/>
<path transform="translate(365,462)" d="m0 0h5l-5 4-2 2-2 6-2-2-1-4 3-3h2v-2z" fill="#CE7610"/>
<path transform="translate(35,229)" d="m0 0 4 1 1 3 4 1 2 5-4-2-3-3-6-2z" fill="#E07D19"/>
<path transform="translate(82,629)" d="m0 0 20 3v1h-15l-4-1z" fill="#75B6E9"/>
<path transform="translate(396,517)" d="m0 0 2 1-10 11-7 3v-2l11-9z" fill="#B3620B"/>
<path transform="translate(0,512)" d="m0 0 5 4 5-1 3-1v2h5v1l-10 2-7-1z" fill="#92291A"/>
<path transform="translate(659,308)" d="m0 0 2 3 2 7h-7l2-9z" fill="#F4B100"/>
<path transform="translate(78,51)" d="m0 0h15l-3 2-5 2-3-1-4 2v-2l-1-1z" fill="#ECE5C8"/>
<path transform="translate(7,23)" d="m0 0 5 2 15 11-2 1-11-7-7-6z" fill="#25536A"/>
<path transform="translate(144,366)" d="m0 0h8l1 3-1 2h-7l-2-1z" fill="#DA52BE"/>
<path transform="translate(278,269)" d="m0 0h2l7 10-2 4-6-9z" fill="#E08416"/>
<path transform="translate(91,527)" d="m0 0 2 1-5 4-1 2-3 1-1 3-5 1 2-4 9-7z" fill="#FBFBFA"/>
<path transform="translate(844,194)" d="m0 0 4 1 1 1v5l-4 1-2-3z" fill="#F4B100"/>
<path transform="translate(480,185)" d="m0 0 4 1 1 5v4h-3l-2-5z" fill="#FD8C65"/>
<path transform="translate(323,419)" d="m0 0h3l-2 6-1 5-1 3-2-3v-6z" fill="#D0790C"/>
<path transform="translate(289,389)" d="m0 0 3 2v10l-3 4h-2l1-4 1-2z" fill="#DC830A"/>
<path transform="translate(596,309)" d="m0 0h2l2 9h-6l1-6z" fill="#F4B100"/>
<path transform="translate(288,292)" d="m0 0h2v13l-2 5h-1z" fill="#CF7608"/>
<path transform="translate(734,187)" d="m0 0h2l1 16h-5l2-1v-13l-2-1z" fill="#FBFAF9"/>
<path transform="translate(188,180)" d="m0 0h5l-3 2-14 8 2-4 7-5z" fill="#431722"/>
<path transform="translate(309,46)" d="m0 0 2 3-10 8-1 2-2-1 5-8 4-2z" fill="#A05309"/>
<path transform="translate(525,14)" d="m0 0h2l1 4h2v2l-7 1-3-3 4-1z" fill="#FD8B64"/>
<path transform="translate(101,381)" d="m0 0 3 3v2l-4 1-1 5-3-1 3-9z" fill="#CF32B2"/>
<path transform="translate(889,193)" d="m0 0h6l-1 3-4-2 5 5-1 4h-6l1-3 4 1-5-4z" fill="#FAF3EE"/>
<path transform="translate(752,194)" d="m0 0 4 1v7h-4l-1-7z" fill="#F4B100"/>
<path transform="translate(387,83)" d="m0 0 2 3-2 4v-2l-7 2-1-4z" fill="#FD8C65"/>
<path transform="translate(89,539)" d="m0 0v3l-5 3 1-5zm-6 6 1 3-7 8v-3z" fill="#73B1E0"/>
<path transform="translate(446,466)" d="m0 0h2l1 9-4 5-2-1 2-4z" fill="#CA7208"/>
<path transform="translate(481,472)" d="m0 0h11l2 3-4-1-3 1-2-1v2l-6-1 2-1z" fill="#CB730A"/>
<path transform="translate(442,455)" d="m0 0 2 2 2 3 2 4v2h-2v9h-1l-2-13z" fill="#E78824"/>
<path transform="translate(741,193)" d="m0 0h5l1 3-5-1v5l4 2-5 1-2-2v-6z" fill="#F7F5EC"/>
<path transform="translate(803,194)" d="m0 0 4 1 1 5-1 2-4-1-1-5z" fill="#F4B100"/>
<path transform="translate(48,180)" d="m0 0h2v4h3l3 6-1 4-4-5v-4h-2z" fill="#ACD9D3"/>
<path transform="translate(38,489)" d="m0 0h3v4l-7 1-1 2h-2l-1-3 6-3 2 1z" fill="#D74EB9"/>
<path transform="translate(121,223)" d="m0 0h2l-2 4-5 2h-3v2h-3l1-3z" fill="#DA8108"/>
<path transform="translate(62,610)" d="m0 0 4 5 4 6-1 3-5-4z" fill="#89C9E5"/>
<path transform="translate(262,520)" d="m0 0m-2 1 2 1-4 4-8 4h-3v-2l12-6z" fill="#E99017"/>
<path transform="translate(376,391)" d="m0 0 3 2v5l-5 5-2-1 3-5z" fill="#E78B18"/>
<path transform="translate(286,302)" d="m0 0h1l1 9-3 6-4 2 2-5z" fill="#EA8927"/>
<path transform="translate(77,288)" d="m0 0h2v6l-3 3-3-5v-3z" fill="#CF32B2"/>
<path transform="translate(388,92)" d="m0 0 4 1 5 2-1 4-5-2z" fill="#FD8C65"/>
<path transform="translate(166,618)" d="m0 0 2 1-6 4-9 3 1-4 10-3z" fill="#75B6E9"/>
<path transform="translate(501,619)" d="m0 0h3l-2 4-7 6-2-1z" fill="#AF3836"/>
<path transform="translate(303,577)" d="m0 0 4 1 6 4 1 3-4-2h-3l-4-3z" fill="#D27908"/>
<path transform="translate(289,233)" d="m0 0h1l1 8 1 2-4 6h-2l1-4z" fill="#E78526"/>
<path transform="translate(552,77)" d="m0 0 2 1-7 6-6 4-4-1 7-4z" fill="#FC7D59"/>
<path transform="translate(552)" d="m0 0 5 1 1 4h-2v2l-4-1z" fill="#FD8A61"/>
<path transform="translate(249,433)" d="m0 0v3l-4 6-5 3 2-5 5-5z" fill="#E78A19"/>
<path transform="translate(103,304)" d="m0 0 7 6 4 4-1 3-5-4-3-5-2-1z" fill="#C8319A"/>
<path transform="translate(856,195)" d="m0 0 4 1v5l-4 1-1-1v-5z" fill="#F4B100"/>
<path transform="translate(796,190)" d="m0 0 1 3 2 1h-2l1 9h-3v-9l-2-1z" fill="#F9F8F4"/>
<path transform="translate(56,54)" d="m0 0 8 1v1l9 1v1h-13l-3-1z" fill="#F7F2EA"/>
<path transform="translate(169,542)" d="m0 0 3 1 5 7-1 4-6-7z" fill="#B38442"/>
<path transform="translate(426,491)" d="m0 0h2l-1 4-5 4-2-1-1-2z" fill="#D97F14"/>
<path transform="translate(343,270)" d="m0 0 2 3 1 11-3-1z" fill="#BA6608"/>
<path transform="translate(251,253)" d="m0 0 6 1 9 5v2l-5-2-10-5z" fill="#E89804"/>
<path transform="translate(771,193)" d="m0 0h4l2 10h-5l1-7-3-2z" fill="#F8F4ED"/>
<path transform="translate(205,173)" d="m0 0m-1 1m-3 1h3v2l-9 5-2-1 1-3z" fill="#964B0D"/>
<path transform="translate(119,630)" d="m0 0h5l-3 3-12 2v-2z" fill="#F9FAF7"/>
<path transform="translate(338,625)" d="m0 0 5 1 6 6v2l-4-2-7-6z" fill="#EBA815"/>
<path transform="translate(322,419)" d="m0 0v3l-1 2v11l-3-3-1-3 2-6z" fill="#F7D2BE"/>
<path transform="translate(149,358)" d="m0 0 4 1v3l-4 3v-2l-4-1 1-2h3z" fill="#D94FBD"/>
<path transform="translate(263,367)" d="m0 0 5 2 6 5v2l-4-2-7-5z" fill="#E8930B"/>
<path transform="translate(3,311)" d="m0 0 5 2v2l-8 1v-4z" fill="#CF32B2"/>
<path transform="translate(27,38)" d="m0 0 5 1 6 3-1 2-5-1-5-3z" fill="#A3D6D9"/>
<path transform="translate(102,36)" d="m0 0v3l-5 6h-2v2l-5-1 4-2h2l2-5z" fill="#84CEEC"/>
<path transform="translate(365,647)" d="m0 0 5 3 7 6-1 2-11-9z" fill="#EFA602"/>
<path transform="translate(114,315)" d="m0 0 12 12-1 2-9-8z" fill="#C23083"/>
<path transform="translate(427,289)" d="m0 0 4 2 1 8-2 1v-5h-2z" fill="#C7700B"/>
<path transform="translate(11,248)" d="m0 0 3 1-12 9h-2v-2z" fill="#FB684D"/>
<path transform="translate(38,233)" d="m0 0 8 6h5l-3 4-3-1v-2l-4-2-3-3z" fill="#932D18"/>
<path transform="translate(340,219)" d="m0 0 4 4 5 8-1 2-6-8z" fill="#A15409"/>
<path transform="translate(275,206)" d="m0 0 5 2 4 3-1 2-4-1-4-4z" fill="#D88306"/>
<path transform="translate(37,43)" d="m0 0 9 3 5 2-1 2-11-4-2-1z" fill="#85CEEC"/>
<path transform="translate(182,560)" d="m0 0 6 4 4 5-1 3-9-10z" fill="#B99151"/>
<path transform="translate(92,528)" d="m0 0h3l-1 5-3 1-3-3z" fill="#ECE1C3"/>
<path transform="translate(353,311)" d="m0 0 4 1v8l-3-1-1-2z" fill="#C9720C"/>
<path transform="translate(429,295)" d="m0 0 3 4-2 5-4 4-2-1 3-3z" fill="#DE8607"/>
<path transform="translate(70,223)" d="m0 0 3 4v6l4 1v2h-4l-3-10z" fill="#DDE6B4"/>
<path transform="translate(237,150)" d="m0 0h3l1 4-5 3-2-1 1-1-2-2z" fill="#451722"/>
<path transform="translate(304,39)" d="m0 0v3l-3 5-3 2-3-1 5-5z" fill="#B7561D"/>
</svg>
